<svg width="32" height="32" viewBox="0 0 32 32" fill="none" xmlns="http://www.w3.org/2000/svg">
<path fill-rule="evenodd" clip-rule="evenodd" d="M15.25 23.0464C15.25 23.435 15.5858 23.75 16 23.75C16.4142 23.75 16.75 23.435 16.75 23.0464V16.5H23.2964C23.685 16.5 24 16.1642 24 15.75C24 15.3358 23.685 15 23.2964 15H16.75V8.45355C16.75 8.06499 16.4142 7.75 16 7.75C15.5858 7.75 15.25 8.06499 15.25 8.45355V15H8.70355C8.31499 15 8 15.3358 8 15.75C8 16.1642 8.31499 16.5 8.70355 16.5H15.25V23.0464Z" fill="#888888"/>
</svg>
