<svg width="136" height="40" viewBox="0 0 136 40" fill="none" xmlns="http://www.w3.org/2000/svg">
<rect x="1" y="0.5" width="134" height="39" rx="7.5" stroke="#111111"/>
<path fill-rule="evenodd" clip-rule="evenodd" d="M27.1973 7.33325H16.128C10.9093 7.33325 9 9.24259 9 14.4613V25.5386C9 30.7573 10.9093 32.6666 16.128 32.6666H27.1973C32.416 32.6666 34.328 30.7573 34.328 25.5386V14.4613C34.3333 9.24259 32.424 7.33325 27.1973 7.33325ZM13.7521 20H14.4241V23.3147H13.7521V21.968H12.2347V23.3147H11.5627V20H12.2347V21.3333H13.7521V20ZM17.5387 21.896C17.5387 22.4293 17.2721 22.7227 16.7867 22.7227C16.3014 22.7227 16.0294 22.4293 16.0294 21.8667V20H15.3574V21.8933C15.3574 22.824 15.8747 23.3573 16.7761 23.3573C17.6774 23.3573 18.2107 22.824 18.2107 21.864V20H17.5387V21.896ZM24.5521 20H24.0001L23.2534 22.28L22.5201 20H21.8054L22.9601 23.3147H23.5174L24.2667 21.1387L25.0187 23.3147H25.5814L26.7361 20H26.0374L25.3041 22.2773L24.5521 20ZM27.9387 21.8853H29.1627V21.2853H27.9387V20.608H29.7147V20H27.2774V23.3067H29.7787V22.7093H27.9387V21.8853ZM30.5787 23.3067H31.2427V20H30.5787V23.3067ZM19.5387 22.6213L19.2374 23.3093H18.5521L20.0001 20H20.5921L22.0454 23.3093H21.3521L21.0667 22.624L19.5387 22.6213ZM19.7894 22.024H20.8001L20.2934 20.84L19.7894 22.024ZM18.4224 14.5485C19.2129 15.339 20.2848 15.7834 21.4028 15.7841C22.5207 15.7834 23.5927 15.339 24.3832 14.5485C25.1737 13.758 25.6181 12.6861 25.6188 11.5681H25.0241C25.0241 12.5286 24.6426 13.4497 23.9634 14.1288C23.2843 14.8079 22.3632 15.1894 21.4028 15.1894C20.4423 15.1894 19.5212 14.8079 18.8421 14.1288C18.163 13.4497 17.7814 12.5286 17.7814 11.5681H17.1868C17.1875 12.6861 17.6319 13.758 18.4224 14.5485Z" fill="#111111"/>
<path fill-rule="evenodd" clip-rule="evenodd" d="M92.072 17.7494V28.0427C92.072 29.5449 92.7662 30.3005 94.1547 30.3094C94.413 30.3074 94.6708 30.2842 94.9254 30.24C95.1613 30.2038 95.3927 30.143 95.616 30.0587L95.3814 28.6294C95.2081 28.6817 95.0289 28.7122 94.848 28.72C94.7365 28.7297 94.6243 28.7139 94.5199 28.6737C94.4155 28.6335 94.3216 28.57 94.2454 28.488C94.0945 28.2501 94.0278 27.9684 94.056 27.688V17.5894L92.072 17.7494ZM72.3146 27.536C72.7563 28.4019 73.4486 29.1147 74.3013 29.5814C75.2397 30.0789 76.2902 30.3268 77.352 30.3014C78.0897 30.3004 78.8251 30.2163 79.544 30.0507C80.269 29.8878 80.9744 29.6473 81.648 29.3334V24.4027H77.0053V25.952H79.7093V28.3307C79.3556 28.4596 78.9904 28.5543 78.6186 28.6134C78.2345 28.6781 77.8456 28.7111 77.456 28.712C76.7041 28.7429 75.9605 28.5458 75.3226 28.1467C74.7627 27.7734 74.3308 27.2372 74.0853 26.6107C73.8149 25.9028 73.6827 25.1497 73.696 24.392C73.6716 23.5511 73.8452 22.7162 74.2026 21.9547C74.5134 21.3126 75.0106 20.7792 75.6293 20.424C76.2813 20.0622 77.0171 19.8783 77.7626 19.8907C78.8189 19.9134 79.8567 20.1722 80.8 20.648L81.3173 19.1147C80.7727 18.8494 80.2003 18.6455 79.6106 18.5067C78.9802 18.3551 78.3338 18.2799 77.6853 18.2827C76.616 18.2673 75.5581 18.5039 74.5973 18.9734C73.6831 19.4312 72.9256 20.1506 72.4213 21.04C71.8628 22.065 71.5867 23.22 71.6213 24.3867C71.5932 25.4772 71.8311 26.5582 72.3146 27.536ZM44.8001 27.0026H49.4908L50.6668 30.1333H52.8241L48.1334 18.4373H46.1868L41.6001 30.1333H43.6614L44.8001 27.0026ZM48.8908 25.4026H45.3974L46.6401 22.0373C46.8161 21.5199 46.9814 21.0159 47.1334 20.5199C47.2988 21.0799 47.4694 21.5919 47.6401 22.0533L48.8908 25.4026ZM53.5894 21.4213C53.632 22.1982 53.6534 22.9093 53.6534 23.5547L53.6374 33.7707L55.632 33.6V29.992C56.1951 30.1893 56.7874 30.2903 57.384 30.2907C58.1422 30.3055 58.8901 30.1128 59.5467 29.7333C60.1849 29.3455 60.692 28.7751 61.0027 28.096C61.374 27.2777 61.5563 26.3864 61.536 25.488C61.5638 24.6641 61.4081 23.8443 61.08 23.088C60.8462 22.5379 60.4536 22.07 59.9525 21.7441C59.4513 21.4182 58.8644 21.2492 58.2667 21.2587C57.7569 21.2654 57.2547 21.3823 56.7944 21.6014C56.3341 21.8205 55.9266 22.1366 55.6 22.528C55.5742 22.1566 55.5262 21.787 55.456 21.4213H53.5894ZM59.5067 25.6C59.5067 26.6667 59.3014 27.4667 58.896 28C58.6896 28.2643 58.4221 28.4745 58.1164 28.6125C57.8107 28.7504 57.4761 28.8121 57.1414 28.792C56.8778 28.791 56.615 28.7624 56.3574 28.7067C56.1178 28.6585 55.885 28.5815 55.664 28.4773V23.8107C55.9377 23.521 56.2532 23.2738 56.6 23.0773C56.9265 22.8976 57.294 22.8057 57.6667 22.8107C57.9254 22.804 58.1819 22.8602 58.4141 22.9745C58.6464 23.0888 58.8474 23.2576 59 23.4667C59.3378 23.9165 59.5067 24.6276 59.5067 25.6ZM62.7493 23.5547C62.7493 22.9093 62.728 22.1982 62.6853 21.4213H64.552C64.6243 21.7867 64.6733 22.1564 64.6986 22.528C65.4755 21.6818 66.3644 21.2587 67.3653 21.2587C67.963 21.2492 68.5499 21.4182 69.0511 21.7441C69.5522 22.07 69.9448 22.5379 70.1786 23.088C70.5067 23.8443 70.6624 24.6641 70.6346 25.488C70.6591 26.3853 70.4814 27.2767 70.1146 28.096C69.8033 28.7755 69.2951 29.3459 68.656 29.7333C67.9995 30.1131 67.2516 30.3059 66.4933 30.2907C65.8967 30.2903 65.3044 30.1893 64.7413 29.992V33.6L62.7466 33.7707L62.7493 23.5547ZM68 28C68.4053 27.4542 68.608 26.6542 68.608 25.6C68.608 24.6276 68.44 23.9165 68.104 23.4667C67.9513 23.2576 67.7503 23.0888 67.5181 22.9745C67.2858 22.8602 67.0294 22.804 66.7706 22.8107C66.398 22.8062 66.0306 22.898 65.704 23.0773C65.3572 23.2738 65.0417 23.521 64.768 23.8107V28.4773C64.9893 28.5808 65.222 28.6577 65.4613 28.7067C65.7189 28.7624 65.9817 28.791 66.2453 28.792C66.58 28.8116 66.9145 28.7498 67.2201 28.6118C67.5256 28.4739 67.7932 28.264 68 28ZM88.7334 30.1333C88.6579 29.7525 88.6116 29.3665 88.5947 28.9786C88.2621 29.3668 87.855 29.6842 87.3974 29.912C86.8812 30.1734 86.3092 30.3052 85.7307 30.296C85.2573 30.3019 84.7888 30.2008 84.36 30C83.9528 29.8079 83.612 29.4987 83.3814 29.112C83.1266 28.673 83 28.1713 83.016 27.664C83.0011 27.2792 83.076 26.8962 83.2347 26.5453C83.3935 26.1945 83.6318 25.8854 83.9307 25.6426C84.5387 25.1378 85.5529 24.8862 86.9734 24.888C87.5025 24.8877 88.0309 24.9252 88.5547 25V24.8293C88.5547 24.0613 88.3911 23.5191 88.064 23.2026C87.673 22.8662 87.1655 22.6967 86.6507 22.7306C86.1896 22.7363 85.731 22.799 85.2854 22.9173C84.8439 23.0238 84.4135 23.172 84 23.36L83.6854 21.9093C84.1376 21.7163 84.6073 21.5672 85.088 21.464C85.6927 21.3273 86.3108 21.2593 86.9307 21.2613C87.5875 21.2434 88.241 21.3604 88.8507 21.6053C89.387 21.8424 89.8237 22.2593 90.0854 22.784C90.4126 23.4865 90.5654 24.2577 90.5307 25.032V28.4986C90.5307 28.8542 90.552 29.4 90.5947 30.136L88.7334 30.1333ZM87.5387 28.5333C87.9231 28.3547 88.2684 28.1018 88.5547 27.7893V26.1893C88.1121 26.137 87.667 26.1076 87.2214 26.1013C86.3983 26.1013 85.8285 26.2346 85.512 26.5013C85.3577 26.6317 85.235 26.7955 85.1532 26.9803C85.0714 27.1651 85.0327 27.366 85.04 27.568C85.0256 27.7425 85.0488 27.918 85.1082 28.0827C85.1675 28.2474 85.2616 28.3975 85.384 28.5226C85.644 28.7419 85.9779 28.8535 86.3174 28.8346C86.7421 28.8282 87.1597 28.7252 87.5387 28.5333ZM97.0347 28.0427V17.7494L99.0213 17.5894V27.688C98.9931 27.9684 99.0598 28.2501 99.2107 28.488C99.2869 28.57 99.3808 28.6335 99.4852 28.6737C99.5896 28.7139 99.7018 28.7297 99.8133 28.72C99.9942 28.7122 100.173 28.6817 100.347 28.6294L100.579 30.0587C100.356 30.143 100.126 30.2038 99.8907 30.24C99.6352 30.2843 99.3766 30.3075 99.1173 30.3094C97.7307 30.3005 97.0364 29.5449 97.0347 28.0427ZM103.04 26.032H108.739V25.496C108.749 24.7653 108.613 24.0399 108.339 23.3627C108.089 22.741 107.662 22.2061 107.112 21.824C106.502 21.4218 105.781 21.2195 105.051 21.2454C104.315 21.2309 103.589 21.4211 102.955 21.7947C102.336 22.1774 101.843 22.7339 101.539 23.3947C101.182 24.1734 101.007 25.0236 101.029 25.88C101.007 26.6974 101.171 27.5091 101.509 28.2534C101.816 28.8958 102.318 29.4244 102.944 29.7627C103.667 30.136 104.472 30.3195 105.285 30.296C106.42 30.3132 107.544 30.0705 108.571 29.5867L108.133 28.2214C107.736 28.3897 107.325 28.5235 106.904 28.6214C106.492 28.7184 106.071 28.7685 105.648 28.7707C104 28.7707 103.131 27.8578 103.04 26.032ZM106.261 23.2027C106.612 23.6478 106.8 24.199 106.795 24.7654L103.088 24.76C103.141 24.1851 103.371 23.6408 103.747 23.2027C103.908 23.03 104.104 22.8933 104.322 22.8014C104.54 22.7095 104.774 22.6645 105.011 22.6694C105.246 22.661 105.479 22.7044 105.696 22.7966C105.912 22.8888 106.105 23.0274 106.261 23.2027ZM110.248 23.6106C110.248 23.1333 110.224 22.4026 110.181 21.424H112.048C112.08 21.6666 112.109 21.9573 112.141 22.2906C112.173 22.624 112.189 22.9013 112.2 23.112C112.401 22.7721 112.629 22.4492 112.883 22.1467C113.103 21.888 113.369 21.672 113.667 21.5093C113.98 21.3401 114.332 21.2547 114.688 21.2613C114.958 21.2547 115.228 21.288 115.488 21.36L115.237 23.088C114.925 22.9976 114.597 22.9746 114.275 23.0206C113.954 23.0666 113.645 23.1804 113.371 23.3546C112.929 23.6827 112.545 24.0809 112.232 24.5333V30.1333H110.248V23.6106ZM115.88 33.5254C116.114 33.6014 116.354 33.6594 116.597 33.6987C116.906 33.7514 117.22 33.7773 117.533 33.7761C118.13 33.7928 118.722 33.6647 119.259 33.4027C119.759 33.133 120.184 32.7425 120.496 32.2667C120.904 31.6369 121.233 30.9588 121.475 30.2481L124.675 21.4241H122.667L121.04 26.3734C120.835 27.0027 120.659 27.6321 120.507 28.2614C120.378 27.6088 120.209 26.9649 120 26.3334L118.368 21.4241H116.235L119.448 30.2081L119.317 30.5307C118.883 31.6667 118.222 32.2347 117.333 32.2347C117.138 32.2333 116.944 32.2155 116.752 32.1814C116.58 32.1537 116.41 32.1172 116.243 32.0721L115.88 33.5254Z" fill="#111111"/>
<path d="M42.7485 12.8729C42.3577 12.6054 42.0882 12.2125 41.944 11.6901L42.8238 11.3432C42.899 11.6671 43.0453 11.9241 43.2626 12.108C43.4799 12.294 43.737 12.386 44.0316 12.386C44.3514 12.386 44.623 12.2857 44.8487 12.0851C45.0744 11.8844 45.1873 11.6378 45.1873 11.3411C45.1873 11.1488 45.1329 10.9754 45.0222 10.8145C44.9114 10.6557 44.761 10.5282 44.5708 10.4362C44.3785 10.3443 44.1716 10.2962 43.9439 10.2962H43.4298V9.46032H43.8916C44.2051 9.46032 44.4663 9.37464 44.6753 9.20328C44.8843 9.03193 44.9887 8.80205 44.9887 8.51158C44.9887 8.25663 44.8926 8.04556 44.6983 7.87629C44.5039 7.70911 44.2615 7.62343 43.971 7.62343C43.7098 7.62343 43.4904 7.70075 43.3107 7.85748C43.1309 8.01421 43.0056 8.2002 42.9366 8.41336L42.0923 8.06646C42.2135 7.72374 42.4351 7.42072 42.7569 7.15741C43.0787 6.89411 43.4862 6.76245 43.9794 6.76245C44.3555 6.76245 44.692 6.83559 44.9846 6.98396C45.2771 7.13234 45.507 7.33504 45.6721 7.59208C45.8372 7.85121 45.9208 8.14169 45.9208 8.4656C45.9208 9.06954 45.6575 9.51466 45.1288 9.80513V9.85738C45.4255 9.99112 45.6658 10.1855 45.8518 10.4404C46.0378 10.6954 46.1297 11.0067 46.1297 11.3724C46.1297 11.7382 46.0378 12.0474 45.856 12.3379C45.6721 12.6284 45.4213 12.8562 45.1037 13.0213C44.786 13.1864 44.4287 13.2699 44.0337 13.2699C43.5698 13.2699 43.1414 13.1362 42.7506 12.8708L42.7485 12.8729Z" fill="#111111"/>
<path d="M49.0262 6.90454H50.1128L52.4701 13.1341H51.4168L50.8422 11.5333H48.301L47.7263 13.1341H46.6731L49.022 6.90454H49.0262ZM50.5308 10.6452L49.8349 8.73517L49.6008 8.02256H49.5486L49.3145 8.73517L48.6187 10.6452H50.5329H50.5308Z" fill="#111111"/>
<path d="M53.4104 6.90454H55.7426C56.0727 6.90454 56.3799 6.97768 56.6641 7.12188C56.9484 7.26607 57.174 7.4646 57.3391 7.71746C57.5042 7.97032 57.5878 8.25034 57.5878 8.55754C57.5878 8.86473 57.5105 9.13222 57.3579 9.36209C57.2033 9.59197 57.0006 9.7675 56.7456 9.88871V9.9326C57.0696 10.0434 57.3287 10.2252 57.5209 10.4801C57.7132 10.7351 57.8072 11.036 57.8072 11.385C57.8072 11.734 57.7195 12.0307 57.5418 12.294C57.3642 12.5573 57.1281 12.7642 56.8292 12.9126C56.5304 13.061 56.2044 13.1341 55.8512 13.1341H53.4146V6.90454H53.4104ZM55.6987 9.523C55.9892 9.523 56.2211 9.43523 56.3946 9.2576C56.568 9.07998 56.6558 8.87727 56.6558 8.64531C56.6558 8.41334 56.5701 8.21273 56.3987 8.04137C56.2274 7.87001 56.0059 7.78433 55.7342 7.78433H54.3675V9.52509H55.6987V9.523ZM55.8471 12.246C56.148 12.246 56.3904 12.154 56.5743 11.9722C56.7582 11.7904 56.848 11.571 56.848 11.316C56.848 11.0611 56.754 10.8395 56.5659 10.6557C56.3779 10.4697 56.1271 10.3777 55.8136 10.3777H54.3696V12.248H55.8491L55.8471 12.246Z" fill="#111111"/>
<path d="M60.6828 6.90454H61.7694L64.1267 13.1341H63.0735L62.4988 11.5333H59.9576L59.3829 13.1341H58.3297L60.6786 6.90454H60.6828ZM62.1874 10.6452L61.4915 8.73517L61.2575 8.02256H61.2052L60.9712 8.73517L60.2753 10.6452H62.1895H62.1874Z" fill="#111111"/>
<path d="M65.0692 6.90454H66.0263V9.49793H68.9415V6.90454H69.8903V13.1341H68.9415V10.4028H66.0263V13.1341H65.0692V6.90454Z" fill="#111111"/>
<path d="M72.6111 7.8094H70.8619V6.90454H75.3068V7.8094H73.5661V13.1341H72.609V7.8094H72.6111Z" fill="#111111"/>
<path d="M77.5346 6.90454H78.6213L80.9785 13.1341H79.9253L79.3506 11.5333H76.8094L76.2348 13.1341H75.1815L77.5304 6.90454H77.5346ZM79.0392 10.6452L78.3433 8.73517L78.1093 8.02256H78.057L77.823 8.73517L77.1271 10.6452H79.0413H79.0392Z" fill="#111111"/>
<path d="M81.5803 13.0819L84.0776 10.081L81.6932 6.95678V6.90454H82.8509L85.0514 9.85319H85.1037V6.90454H86.0524V9.85319H86.1046L88.3052 6.90454H89.4629V6.95678L87.0785 10.081L89.5757 13.0819V13.1341H88.349L86.1046 10.3317H86.0524V13.1341H85.1037V10.3317H85.0514L82.7987 13.1341H81.5803V13.0819Z" fill="#111111"/>
<path d="M90.4723 6.90454H91.4211V10.3505L91.3688 11.5522H91.4211L94.213 6.90663H95.2996V13.1362H94.3509V9.6045L94.4031 8.40289H94.3509L91.5151 13.1362H90.4702V6.90663L90.4723 6.90454Z" fill="#111111"/>
<path d="M98.0329 7.8094H96.2838V6.90454H100.729V7.8094H98.988V13.1341H98.0308V7.8094H98.0329Z" fill="#111111"/>
<path d="M101.721 6.90454H102.67V10.3505L102.618 11.5522H102.67L105.462 6.90663H106.549V13.1362H105.6V9.6045L105.652 8.40289H105.6L102.764 13.1362H101.719V6.90663L101.721 6.90454Z" fill="#111111"/>
<path d="M110.45 12.8729C110.06 12.6054 109.79 12.2125 109.646 11.6901L110.523 11.3432C110.599 11.6671 110.745 11.9241 110.962 12.108C111.18 12.294 111.437 12.386 111.731 12.386C112.051 12.386 112.323 12.2857 112.548 12.0851C112.774 11.8844 112.887 11.6378 112.887 11.3411C112.887 11.1488 112.833 10.9754 112.722 10.8145C112.611 10.6557 112.461 10.5282 112.27 10.4362C112.078 10.3443 111.869 10.2962 111.644 10.2962H111.129V9.46032H111.591C111.905 9.46032 112.166 9.37464 112.375 9.20328C112.584 9.03193 112.688 8.80205 112.688 8.51158C112.688 8.25663 112.592 8.04556 112.398 7.87629C112.204 7.70911 111.961 7.62343 111.671 7.62343C111.41 7.62343 111.19 7.70075 111.01 7.85748C110.831 8.01421 110.705 8.2002 110.636 8.41336L109.792 8.06646C109.913 7.72374 110.135 7.42072 110.459 7.15741C110.78 6.89411 111.188 6.76245 111.681 6.76245C112.057 6.76245 112.394 6.83559 112.686 6.98396C112.979 7.13234 113.209 7.33504 113.374 7.59208C113.539 7.85121 113.623 8.14169 113.623 8.4656C113.623 9.06954 113.359 9.51466 112.831 9.80513V9.85738C113.127 9.99112 113.368 10.1855 113.554 10.4404C113.74 10.6954 113.832 11.0067 113.832 11.3724C113.832 11.7382 113.74 12.0474 113.558 12.3379C113.376 12.6284 113.123 12.8562 112.805 13.0213C112.486 13.1864 112.13 13.2699 111.736 13.2699C111.272 13.2699 110.843 13.1362 110.452 12.8708L110.45 12.8729Z" fill="#111111"/>
</svg>
