<svg width="136" height="40" viewBox="0 0 136 40" fill="none" xmlns="http://www.w3.org/2000/svg">
<rect x="1" y="0.5" width="134" height="39" rx="7.5" stroke="#111111"/>
<path d="M27.7973 20.3006C27.8081 19.4659 28.0298 18.6475 28.4418 17.9216C28.8538 17.1956 29.4428 16.5857 30.1539 16.1485C29.7021 15.5034 29.1062 14.9724 28.4134 14.5979C27.7205 14.2233 26.9499 14.0155 26.1627 13.9908C24.4835 13.8146 22.8555 14.9957 21.9998 14.9957C21.1275 14.9957 19.81 14.0083 18.3913 14.0375C17.4736 14.0672 16.5793 14.334 15.7954 14.8121C15.0115 15.2901 14.3649 15.9631 13.9184 16.7654C11.9844 20.1138 13.427 25.0349 15.2796 27.7415C16.2065 29.0668 17.2898 30.5473 18.7072 30.4948C20.0943 30.4372 20.6123 29.6103 22.2866 29.6103C23.9454 29.6103 24.4314 30.4948 25.8776 30.4614C27.366 30.4372 28.3038 29.1302 29.1981 27.7923C29.8641 26.8479 30.3766 25.8042 30.7166 24.6997C29.8518 24.334 29.1139 23.7218 28.5948 22.9395C28.0757 22.1572 27.7983 21.2394 27.7973 20.3006Z" fill="#111111"/>
<path d="M25.0656 12.2108C25.8772 11.2366 26.277 9.98445 26.1802 8.72021C24.9403 8.85044 23.7951 9.44299 22.9726 10.3798C22.5704 10.8375 22.2624 11.3699 22.0662 11.9467C21.87 12.5235 21.7893 13.1333 21.8289 13.7412C22.449 13.7476 23.0625 13.6132 23.6232 13.3481C24.1838 13.083 24.6771 12.6942 25.0656 12.2108Z" fill="#111111"/>
<path d="M49.8025 27.1397H45.0691L43.9324 30.4961H41.9275L46.4109 18.0781H48.4939L52.9773 30.4961H50.9382L49.8025 27.1397ZM45.5593 25.5908H49.3113L47.4617 20.1436H47.41L45.5593 25.5908Z" fill="#111111"/>
<path d="M62.6599 25.9698C62.6599 28.7833 61.1541 30.5909 58.8816 30.5909C58.306 30.621 57.7335 30.4884 57.2297 30.2083C56.7259 29.9281 56.3112 29.5118 56.033 29.0069H55.99V33.4913H54.1316V21.4425H55.9305V22.9483H55.9646C56.2556 22.4459 56.6773 22.0317 57.1849 21.7498C57.6926 21.468 58.2671 21.329 58.8474 21.3477C61.1453 21.3477 62.6599 23.1641 62.6599 25.9698ZM60.7498 25.9698C60.7498 24.1368 59.8025 22.9317 58.3572 22.9317C56.9373 22.9317 55.9822 24.1622 55.9822 25.9698C55.9822 27.794 56.9373 29.0157 58.3572 29.0157C59.8025 29.0157 60.7498 27.8194 60.7498 25.9698Z" fill="#111111"/>
<path d="M72.6248 25.9698C72.6248 28.7833 71.1189 30.5909 68.8465 30.5909C68.2708 30.621 67.6983 30.4884 67.1945 30.2083C66.6907 29.9281 66.276 29.5118 65.9978 29.0069H65.9548V33.4913H64.0964V21.4425H65.8953V22.9483H65.9294C66.2204 22.4459 66.6421 22.0317 67.1498 21.7498C67.6574 21.468 68.2319 21.329 68.8123 21.3477C71.1101 21.3477 72.6248 23.1641 72.6248 25.9698ZM70.7146 25.9698C70.7146 24.1368 69.7674 22.9317 68.322 22.9317C66.9021 22.9317 65.947 24.1622 65.947 25.9698C65.947 27.794 66.9021 29.0157 68.322 29.0157C69.7674 29.0157 70.7146 27.8194 70.7146 25.9698Z" fill="#111111"/>
<path d="M79.2107 27.0362C79.3484 28.2676 80.5447 29.0762 82.1795 29.0762C83.7459 29.0762 84.8728 28.2676 84.8728 27.1572C84.8728 26.1934 84.1931 25.6162 82.5838 25.2207L80.9744 24.833C78.6941 24.2822 77.6355 23.2158 77.6355 21.4854C77.6355 19.3428 79.5027 17.8711 82.1541 17.8711C84.7781 17.8711 86.5769 19.3428 86.6375 21.4854H84.7615C84.6492 20.2461 83.6248 19.4981 82.1277 19.4981C80.6306 19.4981 79.6062 20.2549 79.6062 21.3565C79.6062 22.2344 80.2605 22.751 81.8611 23.1465L83.2292 23.4824C85.7771 24.0849 86.8357 25.1084 86.8357 26.9248C86.8357 29.248 84.9851 30.7031 82.0417 30.7031C79.2878 30.7031 77.4285 29.2822 77.3083 27.0361L79.2107 27.0362Z" fill="#111111"/>
<path d="M90.8464 19.2998V21.4424H92.5681V22.9141H90.8464V27.9053C90.8464 28.6807 91.1912 29.042 91.948 29.042C92.1524 29.0384 92.3564 29.0241 92.5593 28.999V30.4619C92.219 30.5255 91.8732 30.5543 91.5271 30.5478C89.6941 30.5478 88.9792 29.8593 88.9792 28.1035V22.9141H87.6628V21.4424H88.9792V19.2998H90.8464Z" fill="#111111"/>
<path d="M93.5652 25.9697C93.5652 23.1211 95.2429 21.3311 97.8591 21.3311C100.484 21.3311 102.154 23.1211 102.154 25.9697C102.154 28.8262 100.493 30.6084 97.8591 30.6084C95.2263 30.6084 93.5652 28.8262 93.5652 25.9697ZM100.26 25.9697C100.26 24.0156 99.365 22.8623 97.8591 22.8623C96.3533 22.8623 95.4587 24.0244 95.4587 25.9697C95.4587 27.9316 96.3533 29.0762 97.8591 29.0762C99.365 29.0762 100.26 27.9316 100.26 25.9697Z" fill="#111111"/>
<path d="M103.686 21.4424H105.459V22.9834H105.502C105.622 22.5021 105.904 22.0768 106.3 21.7789C106.697 21.481 107.184 21.3287 107.679 21.3476C107.894 21.3469 108.107 21.3702 108.316 21.417V23.1553C108.046 23.0726 107.764 23.0347 107.481 23.043C107.211 23.032 106.942 23.0796 106.692 23.1825C106.442 23.2854 106.218 23.4411 106.034 23.639C105.85 23.8369 105.711 24.0723 105.626 24.3289C105.542 24.5856 105.514 24.8575 105.545 25.126V30.4961H103.686L103.686 21.4424Z" fill="#111111"/>
<path d="M116.885 27.8369C116.635 29.4805 115.034 30.6084 112.986 30.6084C110.352 30.6084 108.718 28.8437 108.718 26.0127C108.718 23.1729 110.361 21.3311 112.908 21.3311C115.413 21.3311 116.988 23.0518 116.988 25.7969V26.4336H110.594V26.5459C110.564 26.8791 110.606 27.2148 110.716 27.5306C110.826 27.8464 111.002 28.1352 111.233 28.3778C111.463 28.6203 111.742 28.8111 112.052 28.9374C112.362 29.0637 112.695 29.1226 113.029 29.1103C113.468 29.1515 113.909 29.0498 114.286 28.8203C114.662 28.5909 114.955 28.246 115.12 27.8369L116.885 27.8369ZM110.602 25.1348H115.129C115.145 24.8352 115.1 24.5354 114.995 24.2541C114.891 23.9729 114.729 23.7164 114.52 23.5006C114.312 23.2849 114.061 23.1145 113.784 23.0003C113.506 22.8861 113.208 22.8305 112.908 22.8369C112.605 22.8351 112.305 22.8933 112.025 23.008C111.745 23.1227 111.491 23.2918 111.276 23.5054C111.062 23.7191 110.892 23.973 110.776 24.2527C110.661 24.5323 110.602 24.8321 110.602 25.1348Z" fill="#111111"/>
<path d="M44.6719 11.4961H45.4531C45.8464 11.4961 46.151 11.5794 46.3672 11.7461C46.5833 11.9102 46.6914 12.1354 46.6914 12.4219V12.4297C46.6914 12.6146 46.6406 12.7786 46.5391 12.9219C46.4375 13.0625 46.2956 13.1719 46.1133 13.25C45.9336 13.3281 45.7214 13.3672 45.4766 13.3672C45.2396 13.3672 45.0299 13.3333 44.8477 13.2656C44.6654 13.1953 44.5195 13.0964 44.4102 12.9688C44.3008 12.8385 44.237 12.6849 44.2188 12.5078L44.2148 12.4844H43.3594V12.5234C43.3828 12.8464 43.4857 13.1289 43.668 13.3711C43.8503 13.6133 44.0964 13.8021 44.4062 13.9375C44.7161 14.0703 45.0729 14.1367 45.4766 14.1367C45.875 14.1367 46.2331 14.0638 46.5508 13.918C46.8685 13.7721 47.1198 13.5742 47.3047 13.3242C47.4922 13.0742 47.5859 12.7904 47.5859 12.4727V12.4648C47.5859 12.069 47.4674 11.7513 47.2305 11.5117C46.9961 11.2721 46.6966 11.1341 46.332 11.0977V11.0312C46.6445 10.9583 46.8984 10.8047 47.0938 10.5703C47.2891 10.3333 47.3867 10.0599 47.3867 9.75V9.74219C47.3867 9.44271 47.306 9.17969 47.1445 8.95312C46.9831 8.72656 46.7604 8.54948 46.4766 8.42188C46.1953 8.29167 45.8698 8.22656 45.5 8.22656C45.1146 8.22656 44.7773 8.29036 44.4883 8.41797C44.2018 8.54297 43.974 8.72396 43.8047 8.96094C43.6354 9.19531 43.5378 9.47396 43.5117 9.79688L43.5039 9.85938H44.3477V9.83203C44.3685 9.65495 44.4258 9.50521 44.5195 9.38281C44.6159 9.25781 44.7448 9.16276 44.9062 9.09766C45.0677 9.02995 45.2552 8.99609 45.4688 8.99609C45.6901 8.99609 45.8789 9.03125 46.0352 9.10156C46.1914 9.16927 46.3112 9.26562 46.3945 9.39062C46.4779 9.51302 46.5195 9.66016 46.5195 9.83203V9.83984C46.5195 10.1107 46.4206 10.332 46.2227 10.5039C46.0247 10.6732 45.7604 10.7578 45.4297 10.7578H44.6719V11.4961Z" fill="#111111"/>
<path d="M48.2617 14H49.1836L50.7383 9.35156H51.0039V8.36328H50.2969L48.2617 14ZM49.2422 12.4766H52.3008L52.0547 11.7734H49.4883L49.2422 12.4766ZM52.3555 14H53.2773L51.2461 8.36328H50.8047V9.35156L52.3555 14Z" fill="#111111"/>
<path d="M54.7734 14H56.6562C57.0573 14 57.401 13.9362 57.6875 13.8086C57.974 13.681 58.194 13.4987 58.3477 13.2617C58.5039 13.0221 58.582 12.7383 58.582 12.4102V12.4023C58.582 12.1576 58.5286 11.9388 58.4219 11.7461C58.3151 11.5508 58.1667 11.3919 57.9766 11.2695C57.7865 11.1471 57.5638 11.0729 57.3086 11.0469V10.9805C57.4961 10.9492 57.6641 10.875 57.8125 10.7578C57.9609 10.6406 58.0794 10.4974 58.168 10.3281C58.2565 10.1562 58.3008 9.97135 58.3008 9.77344V9.76562C58.3008 9.47917 58.2331 9.23177 58.0977 9.02344C57.9622 8.8125 57.7669 8.64974 57.5117 8.53516C57.2591 8.42057 56.957 8.36328 56.6055 8.36328H54.7734V9.07812H56.3984C56.724 9.07812 56.9766 9.15234 57.1562 9.30078C57.3359 9.44661 57.4258 9.65234 57.4258 9.91797V9.92578C57.4258 10.1992 57.3268 10.4076 57.1289 10.5508C56.931 10.6914 56.638 10.7617 56.25 10.7617H54.7734V11.4297H56.4258C56.7018 11.4297 56.9323 11.4648 57.1172 11.5352C57.3047 11.6029 57.4453 11.7044 57.5391 11.8398C57.6328 11.9753 57.6797 12.1445 57.6797 12.3477V12.3555C57.6797 12.6576 57.5781 12.888 57.375 13.0469C57.1719 13.2057 56.8724 13.2852 56.4766 13.2852H54.7734V14ZM54.3359 14H55.2109V8.36328H54.3359V14Z" fill="#111111"/>
<path d="M59.2773 14H60.1992L61.7539 9.35156H62.0195V8.36328H61.3125L59.2773 14ZM60.2578 12.4766H63.3164L63.0703 11.7734H60.5039L60.2578 12.4766ZM63.3711 14H64.293L62.2617 8.36328H61.8203V9.35156L63.3711 14Z" fill="#111111"/>
<path d="M65.3516 14H66.2266V11.5039H69.1172V14H69.9961V8.36328H69.1172V10.7461H66.2266V8.36328H65.3516V14Z" fill="#111111"/>
<path d="M72.9219 14H73.7969V9.12109H75.5703V8.36328H71.1484V9.12109H72.9219V14Z" fill="#111111"/>
<path d="M75.707 14H76.6289L78.1836 9.35156H78.4492V8.36328H77.7422L75.707 14ZM76.6875 12.4766H79.7461L79.5 11.7734H76.9336L76.6875 12.4766ZM79.8008 14H80.7227L78.6914 8.36328H78.25V9.35156L79.8008 14Z" fill="#111111"/>
<path d="M85.582 10.7578V8.36328H84.7188V10.7578H84.5117L82.4922 8.36328H81.4648L83.8516 11.1211V11.0469L81.2852 14H82.3633L84.5078 11.4961H84.7188V14H85.582V11.4961H85.7891L87.9375 14H89.0273L86.4492 11.0312V11.1016L88.8242 8.36328H87.8086L85.7891 10.7578H85.582Z" fill="#111111"/>
<path d="M90.0234 14H90.8711L93.9531 9.51172L93.3594 9.82812H93.8047V14H94.6758V8.36328H93.8281L90.75 12.8633L91.3359 12.5508H90.8945V8.36328H90.0234V14Z" fill="#111111"/>
<path d="M97.6016 14H98.4766V9.12109H100.25V8.36328H95.8281V9.12109H97.6016V14Z" fill="#111111"/>
<path d="M101.398 14H102.246L105.328 9.51172L104.734 9.82812H105.18V14H106.051V8.36328H105.203L102.125 12.8633L102.711 12.5508H102.27V8.36328H101.398V14Z" fill="#111111"/>
<path d="M110.695 11.4961H111.477C111.87 11.4961 112.174 11.5794 112.391 11.7461C112.607 11.9102 112.715 12.1354 112.715 12.4219V12.4297C112.715 12.6146 112.664 12.7786 112.562 12.9219C112.461 13.0625 112.319 13.1719 112.137 13.25C111.957 13.3281 111.745 13.3672 111.5 13.3672C111.263 13.3672 111.053 13.3333 110.871 13.2656C110.689 13.1953 110.543 13.0964 110.434 12.9688C110.324 12.8385 110.26 12.6849 110.242 12.5078L110.238 12.4844H109.383V12.5234C109.406 12.8464 109.509 13.1289 109.691 13.3711C109.874 13.6133 110.12 13.8021 110.43 13.9375C110.74 14.0703 111.096 14.1367 111.5 14.1367C111.898 14.1367 112.257 14.0638 112.574 13.918C112.892 13.7721 113.143 13.5742 113.328 13.3242C113.516 13.0742 113.609 12.7904 113.609 12.4727V12.4648C113.609 12.069 113.491 11.7513 113.254 11.5117C113.02 11.2721 112.72 11.1341 112.355 11.0977V11.0312C112.668 10.9583 112.922 10.8047 113.117 10.5703C113.312 10.3333 113.41 10.0599 113.41 9.75V9.74219C113.41 9.44271 113.329 9.17969 113.168 8.95312C113.007 8.72656 112.784 8.54948 112.5 8.42188C112.219 8.29167 111.893 8.22656 111.523 8.22656C111.138 8.22656 110.801 8.29036 110.512 8.41797C110.225 8.54297 109.997 8.72396 109.828 8.96094C109.659 9.19531 109.561 9.47396 109.535 9.79688L109.527 9.85938H110.371V9.83203C110.392 9.65495 110.449 9.50521 110.543 9.38281C110.639 9.25781 110.768 9.16276 110.93 9.09766C111.091 9.02995 111.279 8.99609 111.492 8.99609C111.714 8.99609 111.902 9.03125 112.059 9.10156C112.215 9.16927 112.335 9.26562 112.418 9.39062C112.501 9.51302 112.543 9.66016 112.543 9.83203V9.83984C112.543 10.1107 112.444 10.332 112.246 10.5039C112.048 10.6732 111.784 10.7578 111.453 10.7578H110.695V11.4961Z" fill="#111111"/>
</svg>
