<svg width="65" height="64" viewBox="0 0 65 64" fill="none" xmlns="http://www.w3.org/2000/svg">
<rect x="0.5" width="64" height="64" rx="8" fill="white"/>
<g clip-path="url(#clip0_334_2640)">
<path fill-rule="evenodd" clip-rule="evenodd" d="M46.1106 29.2135L44.0977 29.2371L45.7331 29.7167L46.3779 29.6931L46.7081 29.701L47.0384 29.7403L47.3529 29.7796L47.6831 29.8347L48.3436 29.9998L48.7761 30.1806L49.0513 30.3772L49.1613 30.4952L49.3108 30.7468L49.3579 30.8883L49.3893 31.0456V31.2028L49.3737 31.2814L49.3658 31.2972V31.3679L49.3422 31.4151V31.4387L49.3186 31.5173L49.2479 31.6746L49.0277 31.9655L48.9175 32.0599L48.8861 32.0992L48.721 32.2407L49.7275 33.4201L50.1363 33.1685L50.7891 32.6653L51.0327 32.4137L51.2843 32.0206L51.3393 31.8948L51.3552 31.824L51.3787 31.7611L51.4102 31.5095V31.3837L51.3867 31.2579L51.3185 31.0294L51.1957 30.8091L51.0411 30.6046L50.8365 30.4081L50.5865 30.2193L50.1227 29.9756L49.5085 29.7397L49.2175 29.6375L48.9265 29.5589L48.6201 29.4881L48.3209 29.4409L47.7708 29.3466L47.2202 29.2758L46.9371 29.2443L46.662 29.2286L46.3789 29.2129H46.1037L46.1106 29.2135Z" fill="#506484"/>
<path fill-rule="evenodd" clip-rule="evenodd" d="M40.7798 30.55L41.2044 30.4399L40.7248 29.693L40.0958 29.8345L37.9177 30.5265L37.0214 30.9432L36.0386 31.5486L35.6061 31.9339L35.488 32.0597L35.2444 32.4607L35.1894 32.5865L35.1421 32.9954L35.15 33.129L35.2601 33.4907L35.3702 33.703L35.5903 34.0018L35.6926 34.104L36.1407 34.45L36.7383 34.7567L37.7448 35.0869L39.4039 35.3542L41.3774 35.425L43.3588 35.2992L45.812 34.8746L47.0151 34.5286L47.0701 34.5051L47.7462 34.3006L45.2458 33.2863L43.0128 33.5379H39.9226L39.1358 33.4287L38.5617 33.2558L38.444 33.1929L38.2711 33.0748L38.2158 33.02L38.0978 32.8077L38.0349 32.6032L38.0114 32.4067L38.0743 32.1157L38.263 31.8327L38.4437 31.6518L39.12 31.1958L40.779 30.551L40.7798 30.55Z" fill="#506484"/>
<path fill-rule="evenodd" clip-rule="evenodd" d="M52.494 30.6596L52.3525 30.8798L52.2424 31.1314L52.1952 31.3987V35.7311H53.5555V31.6896L54.9864 34.8033L55.2774 35.2672L55.5369 35.5424L55.8593 35.7626L55.9614 35.8019L56.2052 35.8569L56.3468 35.8648L56.3782 35.8569L56.6377 35.8412L56.6927 35.8255L56.7556 35.8176L56.8735 35.7861L57.0622 35.6839L57.078 35.6603L57.1487 35.6132L57.1645 35.5896L57.2353 35.5424L57.3846 35.3537L57.5184 35.1335L59.1302 31.6424V35.7311H60.4983V31.7131L60.4669 31.4065L60.4354 31.265L60.3411 30.9898L60.1996 30.7382L60.0187 30.5337L59.7985 30.3607L59.6727 30.2978L59.3976 30.2035L59.091 30.172L58.7291 30.2035L58.4305 30.3214L58.2418 30.4472L57.998 30.6674L57.7463 31.092L57.7149 31.2021L56.331 34.473L54.9472 31.1155L54.8843 30.9976L54.7428 30.7932L54.4912 30.518L54.2867 30.3686L54.1766 30.3057L53.9486 30.2192L53.6891 30.172H53.4061L53.1388 30.2192L52.8951 30.3292L52.6749 30.4786L52.494 30.6596Z" fill="#506484"/>
<path fill-rule="evenodd" clip-rule="evenodd" d="M16.4437 30.1407V31.556H22.7894V32.2086H16.4437V33.6475H22.7894V34.2687H16.4674V35.684H22.4588L22.4746 35.6762L22.8284 35.6447L23.1822 35.5504L23.4889 35.3774L23.5518 35.3223L23.6225 35.2752L23.7483 35.1651L23.9607 34.8899L24 34.8113L24.0471 34.7405L24.118 34.5832L24.1258 34.5361L24.1729 34.4181L24.2123 34.2451L24.2516 33.8677L24.2279 33.5925L24.1572 33.3409L24.0392 33.105L23.8899 32.8927L24.0236 32.6332L24.0786 32.4917V32.4681L24.1336 32.3576L24.1963 32.0745L24.22 31.8071L24.1813 31.4449L24.0631 31.1068L23.8822 30.8237L23.6471 30.5878L23.513 30.4778L23.3639 30.3913L23.0411 30.2497L22.6796 30.1632L16.444 30.1396L16.4437 30.1407Z" fill="#506484"/>
<path fill-rule="evenodd" clip-rule="evenodd" d="M15.0758 30.196L15.0443 30.1646L15.0207 30.1489L14.9736 30.141H13.8492L13.7862 30.1489L13.7391 30.196L13.6998 30.2432L13.6919 30.314V35.5348L13.6998 35.5898L13.7391 35.6527L13.7862 35.6842L13.8492 35.6999H14.9736L15.0207 35.6842L15.0443 35.6685L15.0758 35.6527L15.1072 35.5898L15.1151 35.5584V35.5427V35.5348H15.123V30.314L15.1069 30.2431L15.0753 30.1959L15.0758 30.196Z" fill="#506484"/>
<path fill-rule="evenodd" clip-rule="evenodd" d="M25.5338 30.141L25.471 30.1488L25.4237 30.196L25.3845 30.2432L25.3767 30.314V35.5348L25.3845 35.5898L25.4238 35.6527L25.4711 35.6842L25.534 35.6999H26.6583L26.7055 35.6842L26.7291 35.6685L26.7606 35.6527L26.792 35.5898L26.7998 35.5584V35.5427V35.5348H26.8076V30.314L26.792 30.2432L26.7606 30.196L26.7291 30.1646L26.7055 30.1489L26.6583 30.141L25.5338 30.141Z" fill="#506484"/>
<path fill-rule="evenodd" clip-rule="evenodd" d="M33.192 30.1728L30.2515 31.9105L29.929 32.2171L29.7403 32.5631V30.1649H28.1757V35.7317H29.7403V33.365L29.7638 33.4358L29.8896 33.6559L29.9684 33.766L30.1571 33.9547L30.3379 34.0963L33.192 35.7317H36.1484L31.2813 32.9562L36.1089 30.1727L33.192 30.1728Z" fill="#506484"/>
<path fill-rule="evenodd" clip-rule="evenodd" d="M11.0894 30.1882L10.6805 30.141H4.50037V35.7078H10.7196L10.9555 35.6921L11.0105 35.6764L11.1992 35.6449L11.325 35.5977L11.3486 35.582L11.443 35.5584L11.6474 35.4641L11.844 35.3383L12.0327 35.181L12.3394 34.8114L12.3944 34.7014L12.4023 34.6699L12.4494 34.5991L12.5438 34.379L12.5752 34.1903L12.591 34.1352L12.6067 34.0094V33.8915H12.6146L12.6067 33.8286L12.5988 33.7971V33.7735L12.5757 33.6403L12.4736 33.3808L12.1745 32.8932L12.2059 32.8224L12.2452 32.7595L12.3081 32.6337V32.6101L12.4104 32.3742L12.4733 32.1069L12.4968 31.8474L12.4577 31.4395L12.3395 31.0856L12.159 30.7949L11.9235 30.5511L11.7739 30.4489L11.4516 30.2917L11.0897 30.1894L11.0894 30.1882ZM5.99404 31.5563H10.9948V32.1853H5.99404V31.5563ZM10.9948 33.6242V34.269H5.99404V33.6242H10.9948Z" fill="#506484"/>
<path fill-rule="evenodd" clip-rule="evenodd" d="M42.6039 31.9103H42.6119L46.4487 30.2591L40.0803 28.1361L42.6039 31.9103Z" fill="#F16763"/>
<path fill-rule="evenodd" clip-rule="evenodd" d="M42.7534 32.0754H42.7456L50.8526 35.2206L46.5902 30.424L42.7534 32.0754Z" fill="#3399FF"/>
</g>
<defs>
<clipPath id="clip0_334_2640">
<rect width="56" height="7.72916" fill="white" transform="translate(4.5 28.1354)"/>
</clipPath>
</defs>
</svg>
