<svg width="136" height="40" viewBox="0 0 136 40" fill="none" xmlns="http://www.w3.org/2000/svg">
<rect x="1" y="0.5" width="134" height="39" rx="7.5" stroke="#111111"/>
<path d="M68.6343 21.7502C66.2833 21.7502 64.3649 23.539 64.3649 26.0049C64.3649 28.4708 66.2813 30.2576 68.6343 30.2576C70.9874 30.2576 72.9037 28.452 72.9037 26.0049C72.9037 23.5578 70.9874 21.7502 68.6343 21.7502ZM68.6343 28.5816C67.3449 28.5816 66.2332 27.5179 66.2332 26.0049C66.2332 24.4919 67.3449 23.4262 68.6343 23.4262C69.9237 23.4262 71.0334 24.4731 71.0334 26.0049C71.0334 27.5367 69.9216 28.5816 68.6343 28.5816ZM59.3203 21.7502C56.9693 21.7502 55.0509 23.539 55.0509 26.0049C55.0509 28.4708 56.9672 30.2576 59.3203 30.2576C61.6733 30.2576 63.5896 28.452 63.5896 26.0049C63.5896 23.5578 61.6713 21.7502 59.3203 21.7502ZM59.3203 28.5816C58.033 28.5816 56.9212 27.5179 56.9212 26.0049C56.9212 24.4919 58.033 23.4262 59.3203 23.4262C60.6076 23.4262 61.7214 24.4731 61.7214 26.0049C61.7214 27.5367 60.6097 28.5816 59.3203 28.5816ZM48.2425 23.0563V24.8597H52.5599C52.4304 25.8754 52.0939 26.6151 51.5777 27.1313C50.9487 27.7603 49.9665 28.452 48.2425 28.452C45.5843 28.452 43.505 26.31 43.505 23.6519C43.505 20.9937 45.5822 18.8517 48.2425 18.8517C49.6761 18.8517 50.723 19.4138 51.4962 20.139L52.7689 18.8663C51.6885 17.8361 50.2549 17.0461 48.2425 17.0461C44.6021 17.0461 41.5406 20.0115 41.5406 23.6519C41.5406 27.2922 44.6021 30.2576 48.2425 30.2576C50.2069 30.2576 51.6885 29.6118 52.8504 28.404C54.0416 27.2128 54.4135 25.5368 54.4135 24.1827C54.4135 23.7647 54.3822 23.3781 54.3174 23.0563H48.2446H48.2425ZM93.5505 24.4564C93.1952 23.5056 92.1169 21.7502 89.9101 21.7502C87.7033 21.7502 85.8999 23.4742 85.8999 26.0049C85.8999 28.3893 87.7033 30.2576 90.1191 30.2576C92.0688 30.2576 93.1952 29.0664 93.6633 28.3726L92.213 27.4051C91.7282 28.1135 91.0699 28.5816 90.117 28.5816C89.1641 28.5816 88.4891 28.1469 88.0544 27.2943L93.7406 24.9412L93.5484 24.4585L93.5505 24.4564ZM87.7514 25.8754C87.7033 24.2307 89.0241 23.3948 89.9749 23.3948C90.7168 23.3948 91.3458 23.7647 91.5547 24.2976L87.7535 25.8774L87.7514 25.8754ZM83.1268 29.9984H84.995V17.4975H83.1268V29.9984ZM80.0653 22.701H80.0005C79.5825 22.2016 78.7759 21.7502 77.7624 21.7502C75.635 21.7502 73.6873 23.6184 73.6873 26.0196C73.6873 28.4207 75.6371 30.2555 77.7624 30.2555C78.778 30.2555 79.5825 29.8041 80.0005 29.2879H80.0653V29.9002C80.0653 31.5281 79.1959 32.3975 77.7937 32.3975C76.6506 32.3975 75.9401 31.5762 75.6517 30.8845L74.0238 31.5616C74.4898 32.69 75.7311 34.0756 77.7937 34.0756C79.9838 34.0756 81.8374 32.7862 81.8374 29.6453V22.0093H80.0653V22.7031V22.701ZM77.9233 28.5816C76.6339 28.5816 75.5556 27.5033 75.5556 26.0216C75.5556 24.54 76.6339 23.4283 77.9233 23.4283C79.2127 23.4283 80.1948 24.5233 80.1948 26.0216C80.1948 27.52 79.1959 28.5816 77.9233 28.5816ZM102.304 17.4996H97.8345V30.0005H99.6985V25.2652H102.304C104.373 25.2652 106.405 23.7668 106.405 21.3824C106.405 18.998 104.371 17.4996 102.304 17.4996ZM102.353 23.5244H99.6985V19.2383H102.353C103.748 19.2383 104.54 20.3939 104.54 21.3803C104.54 22.3667 103.748 23.5223 102.353 23.5223M113.884 21.7272C112.534 21.7272 111.134 22.3228 110.555 23.6393L112.212 24.331C112.565 23.6393 113.225 23.4136 113.917 23.4136C114.883 23.4136 115.863 23.9925 115.879 25.0206V25.1502C115.541 24.958 114.818 24.6675 113.934 24.6675C112.149 24.6675 110.331 25.6476 110.331 27.4824C110.331 29.1563 111.796 30.2325 113.434 30.2325C114.69 30.2325 115.38 29.6704 115.815 29.01H115.879V29.9755H117.681V25.1816C117.681 22.9622 116.026 21.7251 113.886 21.7251M113.66 28.5753C113.048 28.5753 112.195 28.2702 112.195 27.5137C112.195 26.5483 113.257 26.1805 114.174 26.1805C114.993 26.1805 115.38 26.3581 115.879 26.5984C115.735 27.7561 114.738 28.5774 113.66 28.5774M124.243 21.9989L122.103 27.4197H122.038L119.819 21.9989H117.808L121.137 29.5742L119.24 33.7872H121.185L126.316 21.9989H124.241H124.243ZM107.437 29.9964H109.303V17.4954H107.437V29.9964Z" fill="#111111"/>
<path fill-rule="evenodd" clip-rule="evenodd" d="M21.2178 19.4245L21.2179 19.4245L21.2158 19.4224L21.2178 19.4245ZM11.136 30.8528L21.2131 20.1586L26.0344 25.4074L14.5824 32.015L14.5479 32.0365C14.195 32.2417 13.7866 32.3595 13.3479 32.3595C12.3413 32.3595 11.4808 31.7348 11.136 30.8528Z" fill="#111111"/>
<path fill-rule="evenodd" clip-rule="evenodd" d="M31.7311 17.9285L31.9649 17.5389L31.7464 17.9385C32.4874 18.3436 32.9846 19.1197 32.9846 20.0242C32.9846 20.9274 32.4802 21.7136 31.7313 22.1192L26.9068 24.9038L21.7037 19.7026L26.8659 15.1086L31.7239 17.9242L31.7311 17.9285Z" fill="#111111"/>
<path fill-rule="evenodd" clip-rule="evenodd" d="M10.9724 10.3461V29.6146L20.8648 19.7222L10.9724 10.3461Z" fill="#111111"/>
<path fill-rule="evenodd" clip-rule="evenodd" d="M11.141 9.13963L21.2963 19.2929L25.9923 14.5987L14.5782 7.98087C14.2188 7.76486 13.7996 7.64062 13.3499 7.64062C12.3503 7.64062 11.4908 8.26108 11.141 9.13963Z" fill="#111111"/>
<path d="M42.7485 12.8729C42.3577 12.6054 42.0882 12.2125 41.944 11.6901L42.8238 11.3432C42.899 11.6671 43.0453 11.9241 43.2626 12.108C43.4799 12.294 43.737 12.386 44.0316 12.386C44.3514 12.386 44.623 12.2857 44.8487 12.0851C45.0744 11.8844 45.1873 11.6378 45.1873 11.3411C45.1873 11.1488 45.1329 10.9754 45.0222 10.8145C44.9114 10.6557 44.761 10.5282 44.5708 10.4362C44.3785 10.3443 44.1716 10.2962 43.9439 10.2962H43.4298V9.46032H43.8916C44.2051 9.46032 44.4663 9.37464 44.6753 9.20328C44.8843 9.03193 44.9887 8.80205 44.9887 8.51158C44.9887 8.25663 44.8926 8.04556 44.6983 7.87629C44.5039 7.70911 44.2615 7.62343 43.971 7.62343C43.7098 7.62343 43.4904 7.70075 43.3107 7.85748C43.1309 8.01421 43.0056 8.2002 42.9366 8.41336L42.0923 8.06646C42.2135 7.72374 42.4351 7.42072 42.7569 7.15741C43.0787 6.89411 43.4862 6.76245 43.9794 6.76245C44.3555 6.76245 44.692 6.83559 44.9846 6.98396C45.2771 7.13234 45.507 7.33504 45.6721 7.59208C45.8372 7.85121 45.9208 8.14169 45.9208 8.4656C45.9208 9.06954 45.6575 9.51466 45.1288 9.80513V9.85738C45.4255 9.99112 45.6658 10.1855 45.8518 10.4404C46.0378 10.6954 46.1297 11.0067 46.1297 11.3724C46.1297 11.7382 46.0378 12.0474 45.856 12.3379C45.6721 12.6284 45.4213 12.8562 45.1037 13.0213C44.786 13.1864 44.4287 13.2699 44.0337 13.2699C43.5698 13.2699 43.1414 13.1362 42.7506 12.8708L42.7485 12.8729Z" fill="#111111"/>
<path d="M49.0262 6.90454H50.1128L52.4701 13.1341H51.4168L50.8422 11.5333H48.301L47.7263 13.1341H46.6731L49.022 6.90454H49.0262ZM50.5308 10.6452L49.8349 8.73517L49.6008 8.02256H49.5486L49.3145 8.73517L48.6187 10.6452H50.5329H50.5308Z" fill="#111111"/>
<path d="M53.4104 6.90454H55.7426C56.0727 6.90454 56.3799 6.97768 56.6641 7.12188C56.9484 7.26607 57.174 7.4646 57.3391 7.71746C57.5042 7.97032 57.5878 8.25034 57.5878 8.55754C57.5878 8.86473 57.5105 9.13222 57.3579 9.36209C57.2033 9.59197 57.0006 9.7675 56.7456 9.88871V9.9326C57.0696 10.0434 57.3287 10.2252 57.5209 10.4801C57.7132 10.7351 57.8072 11.036 57.8072 11.385C57.8072 11.734 57.7195 12.0307 57.5418 12.294C57.3642 12.5573 57.1281 12.7642 56.8292 12.9126C56.5304 13.061 56.2044 13.1341 55.8512 13.1341H53.4146V6.90454H53.4104ZM55.6987 9.523C55.9892 9.523 56.2211 9.43523 56.3946 9.2576C56.568 9.07998 56.6558 8.87727 56.6558 8.64531C56.6558 8.41334 56.5701 8.21273 56.3987 8.04137C56.2274 7.87001 56.0059 7.78433 55.7342 7.78433H54.3675V9.52509H55.6987V9.523ZM55.8471 12.246C56.148 12.246 56.3904 12.154 56.5743 11.9722C56.7582 11.7904 56.848 11.571 56.848 11.316C56.848 11.0611 56.754 10.8395 56.5659 10.6557C56.3779 10.4697 56.1271 10.3777 55.8136 10.3777H54.3696V12.248H55.8491L55.8471 12.246Z" fill="#111111"/>
<path d="M60.6828 6.90454H61.7694L64.1267 13.1341H63.0735L62.4988 11.5333H59.9576L59.3829 13.1341H58.3297L60.6786 6.90454H60.6828ZM62.1874 10.6452L61.4915 8.73517L61.2575 8.02256H61.2052L60.9712 8.73517L60.2753 10.6452H62.1895H62.1874Z" fill="#111111"/>
<path d="M65.0692 6.90454H66.0263V9.49793H68.9415V6.90454H69.8903V13.1341H68.9415V10.4028H66.0263V13.1341H65.0692V6.90454Z" fill="#111111"/>
<path d="M72.6111 7.8094H70.8619V6.90454H75.3068V7.8094H73.5661V13.1341H72.609V7.8094H72.6111Z" fill="#111111"/>
<path d="M77.5346 6.90454H78.6213L80.9785 13.1341H79.9253L79.3506 11.5333H76.8094L76.2348 13.1341H75.1815L77.5304 6.90454H77.5346ZM79.0392 10.6452L78.3433 8.73517L78.1093 8.02256H78.057L77.823 8.73517L77.1271 10.6452H79.0413H79.0392Z" fill="#111111"/>
<path d="M81.5803 13.0819L84.0776 10.081L81.6932 6.95678V6.90454H82.8509L85.0514 9.85319H85.1037V6.90454H86.0524V9.85319H86.1046L88.3052 6.90454H89.4629V6.95678L87.0785 10.081L89.5757 13.0819V13.1341H88.349L86.1046 10.3317H86.0524V13.1341H85.1037V10.3317H85.0514L82.7987 13.1341H81.5803V13.0819Z" fill="#111111"/>
<path d="M90.4723 6.90454H91.4211V10.3505L91.3688 11.5522H91.4211L94.213 6.90663H95.2996V13.1362H94.3509V9.6045L94.4031 8.40289H94.3509L91.5151 13.1362H90.4702V6.90663L90.4723 6.90454Z" fill="#111111"/>
<path d="M98.0329 7.8094H96.2838V6.90454H100.729V7.8094H98.988V13.1341H98.0308V7.8094H98.0329Z" fill="#111111"/>
<path d="M101.721 6.90454H102.67V10.3505L102.618 11.5522H102.67L105.462 6.90663H106.549V13.1362H105.6V9.6045L105.652 8.40289H105.6L102.764 13.1362H101.719V6.90663L101.721 6.90454Z" fill="#111111"/>
<path d="M110.45 12.8729C110.06 12.6054 109.79 12.2125 109.646 11.6901L110.523 11.3432C110.599 11.6671 110.745 11.9241 110.962 12.108C111.18 12.294 111.437 12.386 111.731 12.386C112.051 12.386 112.323 12.2857 112.548 12.0851C112.774 11.8844 112.887 11.6378 112.887 11.3411C112.887 11.1488 112.833 10.9754 112.722 10.8145C112.611 10.6557 112.461 10.5282 112.27 10.4362C112.078 10.3443 111.869 10.2962 111.644 10.2962H111.129V9.46032H111.591C111.905 9.46032 112.166 9.37464 112.375 9.20328C112.584 9.03193 112.688 8.80205 112.688 8.51158C112.688 8.25663 112.592 8.04556 112.398 7.87629C112.204 7.70911 111.961 7.62343 111.671 7.62343C111.41 7.62343 111.19 7.70075 111.01 7.85748C110.831 8.01421 110.705 8.2002 110.636 8.41336L109.792 8.06646C109.913 7.72374 110.135 7.42072 110.459 7.15741C110.78 6.89411 111.188 6.76245 111.681 6.76245C112.057 6.76245 112.394 6.83559 112.686 6.98396C112.979 7.13234 113.209 7.33504 113.374 7.59208C113.539 7.85121 113.623 8.14169 113.623 8.4656C113.623 9.06954 113.359 9.51466 112.831 9.80513V9.85738C113.127 9.99112 113.368 10.1855 113.554 10.4404C113.74 10.6954 113.832 11.0067 113.832 11.3724C113.832 11.7382 113.74 12.0474 113.558 12.3379C113.376 12.6284 113.123 12.8562 112.805 13.0213C112.486 13.1864 112.13 13.2699 111.736 13.2699C111.272 13.2699 110.843 13.1362 110.452 12.8708L110.45 12.8729Z" fill="#111111"/>
</svg>
