<svg width="232" height="32" viewBox="0 0 232 32" fill="none" xmlns="http://www.w3.org/2000/svg">
<g clip-path="url(#clip0_531_849)">
<path d="M17.8538 31.0363C25.7524 31.0363 32.1555 24.6368 32.1555 16.7427C32.1555 8.84856 25.7524 2.4491 17.8538 2.4491C9.9551 2.4491 3.552 8.84856 3.552 16.7427C3.552 24.6368 9.9551 31.0363 17.8538 31.0363Z" fill="#888888"/>
<path d="M17.8538 30.0493C25.7524 30.0493 32.1555 23.65 32.1555 15.7557C32.1555 7.86162 25.7524 1.46216 17.8538 1.46216C9.9551 1.46216 3.552 7.86162 3.552 15.7557C3.552 23.65 9.9551 30.0493 17.8538 30.0493Z" fill="white" stroke="#888888" stroke-width="0.338336" stroke-miterlimit="10"/>
<path d="M6.49776 7.08081L29.2244 24.3987" stroke="#888888" stroke-width="0.676671" stroke-miterlimit="10"/>
<path d="M37.2515 31.5616C45.1501 31.5616 51.5532 25.1621 51.5532 17.268C51.5532 9.37385 45.1501 2.97437 37.2515 2.97437C29.3528 2.97437 22.9498 9.37385 22.9498 17.268C22.9498 25.1621 29.3528 31.5616 37.2515 31.5616Z" fill="#888888"/>
<path d="M37.2515 30.7978C45.1501 30.7978 51.5532 24.3983 51.5532 16.5042C51.5532 8.60999 45.1501 2.21057 37.2515 2.21057C29.3528 2.21057 22.9498 8.60999 22.9498 16.5042C22.9498 24.3983 29.3528 30.7978 37.2515 30.7978Z" fill="white" stroke="#888888" stroke-width="0.338336" stroke-miterlimit="10"/>
<path d="M37.2514 2.22644V30.7817" stroke="#888888" stroke-width="0.676671" stroke-miterlimit="10"/>
<g clip-path="url(#clip1_531_849)">
<path d="M66.6192 11.3962H61.5085V8.38623H75.4261V11.3962H70.3154V24.3482H66.6192V11.3962Z" fill="#888888"/>
<path d="M88.4996 20.9277H81.0845L79.67 24.3482H75.8826L83.001 8.38623H86.6516L93.7928 24.3482H89.9142L88.4996 20.9277ZM87.336 18.123L84.8035 12.0119L82.2709 18.123H87.336Z" fill="#888888"/>
<path d="M108.546 16.0479C109.459 16.3368 110.174 16.8232 110.691 17.5073C111.208 18.1762 111.466 19.0047 111.466 19.9928C111.466 21.3914 110.919 22.4707 109.824 23.2308C108.744 23.9757 107.162 24.3482 105.078 24.3482H96.8188V8.38623H104.622C106.569 8.38623 108.059 8.75867 109.094 9.50356C110.143 10.2484 110.668 11.2594 110.668 12.5363C110.668 13.3116 110.478 14.0033 110.097 14.6114C109.732 15.2194 109.215 15.6983 108.546 16.0479ZM100.492 11.1682V14.9306H104.165C105.078 14.9306 105.77 14.771 106.242 14.4517C106.713 14.1325 106.949 13.6613 106.949 13.038C106.949 12.4147 106.713 11.951 106.242 11.647C105.77 11.3278 105.078 11.1682 104.165 11.1682H100.492ZM104.804 21.5662C105.778 21.5662 106.508 21.4066 106.995 21.0873C107.496 20.7681 107.747 20.274 107.747 19.6051C107.747 18.2826 106.766 17.6213 104.804 17.6213H100.492V21.5662H104.804Z" fill="#888888"/>
<path d="M115.634 8.38623H119.33V21.3381H127.338V24.3482H115.634V8.38623Z" fill="#888888"/>
<path d="M143.138 21.3837V24.3482H130.772V8.38623H142.842V11.3506H134.445V14.8166H141.86V17.6897H134.445V21.3837H143.138Z" fill="#888888"/>
<path d="M150.756 11.3962H145.646V8.38623H159.563V11.3962H154.452V24.3482H150.756V11.3962Z" fill="#888888"/>
<path d="M168.739 18.0774L166.594 20.312V24.3482H162.921V8.38623H166.594V15.8427L173.667 8.38623H177.774L171.157 15.5007L178.162 24.3482H173.849L168.739 18.0774Z" fill="#888888"/>
<path d="M181.179 8.38623H184.875V24.3482H181.179V8.38623Z" fill="#888888"/>
<path d="M191.129 24.5306C190.505 24.5306 189.981 24.3177 189.555 23.8921C189.129 23.4664 188.916 22.9343 188.916 22.2959C188.916 21.6422 189.129 21.1177 189.555 20.7225C189.981 20.312 190.505 20.1068 191.129 20.1068C191.753 20.1068 192.277 20.312 192.703 20.7225C193.129 21.1177 193.342 21.6422 193.342 22.2959C193.342 22.9343 193.129 23.4664 192.703 23.8921C192.277 24.3177 191.753 24.5306 191.129 24.5306Z" fill="#888888"/>
<path d="M204.313 24.6217C202.032 24.6217 200.252 23.9908 198.975 22.7291C197.712 21.4674 197.082 19.6659 197.082 17.3249V8.38623H200.777V17.1881C200.777 20.046 201.964 21.475 204.336 21.475C205.492 21.475 206.375 21.1329 206.983 20.4488C207.592 19.7496 207.896 18.6626 207.896 17.1881V8.38623H211.546V17.3249C211.546 19.6659 210.907 21.4674 209.629 22.7291C208.368 23.9908 206.596 24.6217 204.313 24.6217Z" fill="#888888"/>
<path d="M226.751 20.9277H219.337L217.922 24.3482H214.134L221.252 8.38623H224.903L232.044 24.3482H228.166L226.751 20.9277ZM225.588 18.123L223.055 12.0119L220.523 18.123H225.588Z" fill="#888888"/>
</g>
</g>
<defs>
<clipPath id="clip0_531_849">
<rect width="231.044" height="32" fill="white" transform="translate(0.478027)"/>
</clipPath>
<clipPath id="clip1_531_849">
<rect width="170.57" height="16.2355" fill="white" transform="translate(61.5085 8.38623)"/>
</clipPath>
</defs>
</svg>
