<svg width="180" height="29" viewBox="0 0 180 29" fill="none" xmlns="http://www.w3.org/2000/svg">
<path d="M13.6517 28.8643C21.1913 28.8643 27.3034 22.7557 27.3034 15.2203C27.3034 7.68499 21.1913 1.57635 13.6517 1.57635C6.11206 1.57635 0 7.68499 0 15.2203C0 22.7557 6.11206 28.8643 13.6517 28.8643Z" fill="#3B9C25"/>
<path d="M13.8869 27.5934C21.2346 27.5934 27.1911 21.6404 27.1911 14.2967C27.1911 6.95315 21.2346 1 13.8869 1C6.53913 1 0.582642 6.95315 0.582642 14.2967C0.582642 21.6404 6.53913 27.5934 13.8869 27.5934Z" fill="white" stroke="#707070" stroke-width="0.314738" stroke-miterlimit="10"/>
<path d="M3.32336 6.22681L24.4649 22.3369" stroke="#707070" stroke-width="0.629476" stroke-miterlimit="10"/>
<path d="M31.9311 29C39.2788 29 45.2353 23.0468 45.2353 15.7032C45.2353 8.3597 39.2788 2.40652 31.9311 2.40652C24.5833 2.40652 18.627 8.3597 18.627 15.7032C18.627 23.0468 24.5833 29 31.9311 29Z" fill="#3B9C25"/>
<path d="M31.9316 28.2897C39.2793 28.2897 45.2358 22.3366 45.2358 14.993C45.2358 7.64934 39.2793 1.69623 31.9316 1.69623C24.5838 1.69623 18.6274 7.64934 18.6274 14.993C18.6274 22.3366 24.5838 28.2897 31.9316 28.2897Z" fill="white" stroke="#707070" stroke-width="0.314738" stroke-miterlimit="10"/>
<path d="M31.9317 1.71115V28.2749" stroke="#707070" stroke-width="0.629476" stroke-miterlimit="10"/>
<path fill-rule="evenodd" clip-rule="evenodd" d="M55.0691 11.1691H51.2361V8.91168H61.6742V11.1691H57.8412V20.8831H55.0691V11.1691ZM71.4791 18.3178H65.9178L64.8569 20.8831H62.0164L67.3552 8.91168H70.0931L75.449 20.8831H72.5401L71.4791 18.3178ZM70.6065 16.2142L68.707 11.6309L66.8076 16.2142H70.6065ZM88.1224 15.7525C87.7346 15.2394 87.1984 14.8746 86.5139 14.658C87.0159 14.3957 87.4037 14.0366 87.6775 13.5805C87.9627 13.1245 88.1053 12.6057 88.1053 12.0242C88.1053 11.0665 87.7118 10.3083 86.9246 9.74968C86.1489 9.19101 85.0309 8.91168 83.5707 8.91168H77.7185V20.8831H83.9129C85.4758 20.8831 86.6622 20.6038 87.4721 20.0451C88.2935 19.475 88.7042 18.6655 88.7042 17.6166C88.7042 16.8755 88.5103 16.2541 88.1224 15.7525ZM80.4735 13.82V10.9981H83.2285C83.9129 10.9981 84.432 11.1178 84.7857 11.3573C85.1393 11.5853 85.3161 11.933 85.3161 12.4005C85.3161 12.8679 85.1393 13.2214 84.7857 13.4608C84.432 13.7002 83.9129 13.82 83.2285 13.82H80.4735ZM85.3504 18.4375C84.9853 18.6769 84.4377 18.7966 83.7076 18.7966H80.4735V15.838H83.7076C85.1792 15.838 85.915 16.334 85.915 17.3259C85.915 17.8275 85.7267 18.1981 85.3504 18.4375ZM91.8298 8.91168H94.6019V18.6256H100.608V20.8831H91.8298V8.91168ZM112.458 20.8831V18.6598H105.939V15.8893H111.5V13.7344H105.939V11.1349H112.236V8.91168H103.184V20.8831H112.458ZM118.172 11.1691H114.339V8.91168H124.777V11.1691H120.944V20.8831H118.172V11.1691ZM130.05 17.856L131.659 16.18L135.492 20.8831H138.726L133.472 14.2475L138.435 8.91168H135.355L130.05 14.504V8.91168H127.295V20.8831H130.05V17.856ZM140.989 8.91168H143.761V20.8831H140.989V8.91168ZM147.271 20.541C147.59 20.8603 147.984 21.0199 148.452 21.0199C148.919 21.0199 149.313 20.8603 149.632 20.541C149.952 20.2218 150.111 19.8227 150.111 19.3439C150.111 18.8536 149.952 18.4603 149.632 18.1638C149.313 17.856 148.919 17.7021 148.452 17.7021C147.984 17.7021 147.59 17.856 147.271 18.1638C146.951 18.4603 146.792 18.8536 146.792 19.3439C146.792 19.8227 146.951 20.2218 147.271 20.541ZM158.339 21.0883C156.629 21.0883 155.294 20.6151 154.336 19.6688C153.389 18.7225 152.916 17.3715 152.916 15.6157V8.91168H155.688V15.5131C155.688 17.6565 156.578 18.7282 158.357 18.7282C159.224 18.7282 159.886 18.4717 160.342 17.9586C160.799 17.4342 161.027 16.619 161.027 15.5131V8.91168H163.764V15.6157C163.764 17.3715 163.285 18.7225 162.327 19.6688C161.38 20.6151 160.051 21.0883 158.339 21.0883ZM169.607 18.3178H175.168L176.229 20.8831H179.138L173.782 8.91168H171.044L165.705 20.8831H168.546L169.607 18.3178ZM172.396 11.6309L174.296 16.2142H170.496L172.396 11.6309Z" fill="white"/>
</svg>
