<svg width="65" height="64" viewBox="0 0 65 64" fill="none" xmlns="http://www.w3.org/2000/svg">
<rect x="0.5" width="64" height="64" rx="8" fill="white"/>
<g clip-path="url(#clip0_334_2561)">
<path d="M23.3339 20.8269H22.6251L21.5289 15.513V20.8363H20.8862V14.1584H21.9163L23.0032 19.4912L24.0521 14.1584H25.0822V20.8363H24.3828V15.4653L23.3339 20.8269Z" fill="#2B2B2B"/>
<path d="M26.575 20.8363H25.8378V14.1582H26.575V20.8363Z" fill="#2B2B2B"/>
<path d="M28.067 17.8312V20.8363H27.3298V14.1582H28.067V17.1635H29.6926V14.1582H30.4295V20.8363H29.6926V17.8312H28.067Z" fill="#2B2B2B"/>
<path d="M31.9237 20.8363H31.1865V14.1582H31.9237V20.8363Z" fill="#2B2B2B"/>
<mask id="mask0_334_2561" style="mask-type:luminance" maskUnits="userSpaceOnUse" x="-31" y="-14" width="129" height="92">
<path d="M-30.0751 -13.5388H97.0027V77.1705H-30.0751V-13.5388Z" fill="white"/>
</mask>
<g mask="url(#mask0_334_2561)">
<path d="M35.6 15.7737V16.3747H34.9007V15.7356C34.9007 15.1345 34.6645 14.772 34.1258 14.772C33.5967 14.772 33.351 15.1345 33.351 15.7356V19.2654C33.351 19.8664 33.5967 20.2289 34.1258 20.2289C34.6645 20.2289 34.9007 19.8664 34.9007 19.2654V18.3973H35.6V19.2273C35.6 20.2385 35.1276 20.9064 34.1069 20.9064C33.0957 20.9064 32.6233 20.2385 32.6233 19.2273V15.7737C32.6233 14.7625 33.0957 14.0946 34.1069 14.0946C35.1276 14.0946 35.6 14.7625 35.6 15.7737Z" fill="#2B2B2B"/>
<path d="M37.2809 20.8436V14.8429H36.0619V14.1655H39.2371V14.8429H38.0181V20.8436H37.2809Z" fill="#2B2B2B"/>
<path d="M42.1392 17.1229V17.7907H40.5232V20.1661H42.5077V20.8436H39.786V14.1655H42.5077V14.8429H40.5232V17.1229H42.1392Z" fill="#2B2B2B"/>
<path d="M44.5763 17.5428C45.1245 17.5428 45.3891 17.2852 45.3891 16.646V15.7587C45.3891 15.1482 45.1716 14.8429 44.633 14.8429H43.9243V17.5428H44.5763ZM44.633 14.1655C45.6726 14.1655 46.1166 14.7857 46.1166 15.7969V16.5983C46.1166 17.6572 45.6253 18.2106 44.5763 18.2106H43.9243V20.8436H43.1871V14.1655H44.633Z" fill="#2B2B2B"/>
<path d="M49.6131 15.7737V16.3747H48.9138V15.7356C48.9138 15.1345 48.6776 14.772 48.1388 14.772C47.6098 14.772 47.3641 15.1345 47.3641 15.7356V19.2654C47.3641 19.8664 47.6098 20.2289 48.1388 20.2289C48.6776 20.2289 48.9138 19.8664 48.9138 19.2654V18.3973H49.6131V19.2273C49.6131 20.2385 49.1407 20.9064 48.12 20.9064C47.1088 20.9064 46.6364 20.2385 46.6364 19.2273V15.7737C46.6364 14.7625 47.1088 14.0946 48.12 14.0946C49.1407 14.0946 49.6131 14.7625 49.6131 15.7737Z" fill="#2B2B2B"/>
<path d="M51.2945 20.8436V14.8429H50.0754V14.1655H53.2507V14.8429H52.0317V20.8436H51.2945Z" fill="#2B2B2B"/>
<path d="M55.3208 20.1663C55.8594 20.1663 56.1051 19.8801 56.1051 19.2601V18.6685C56.1051 17.9245 55.8123 17.6764 55.1791 17.6764H54.5365V20.1663H55.3208ZM55.1035 16.9991C55.6893 16.9991 55.9918 16.8081 55.9918 16.1119V15.7207C55.9918 15.1292 55.7933 14.8429 55.2641 14.8429H54.5365V16.9991H55.1035ZM55.2831 14.1657C56.313 14.1657 56.7195 14.6617 56.7195 15.6444V15.9592C56.7195 16.665 56.521 17.1039 55.9445 17.2852C56.5872 17.4666 56.8328 17.9816 56.8328 18.7162V19.2791C56.8328 20.2807 56.3509 20.8436 55.3208 20.8436H53.7993V14.1657H55.2831Z" fill="#2B2B2B"/>
<path d="M58.1744 19.2679C58.1744 19.8785 58.4295 20.2314 58.9587 20.2314C59.4975 20.2314 59.7432 19.8785 59.7432 19.2679V15.738C59.7432 15.137 59.4975 14.7745 58.9587 14.7745C58.4295 14.7745 58.1744 15.137 58.1744 15.738V19.2679ZM57.4469 15.7763C57.4469 14.7555 57.9477 14.0972 58.9587 14.0972C59.9794 14.0972 60.4803 14.7555 60.4803 15.7763V19.2298C60.4803 20.241 59.9794 20.9089 58.9587 20.9089C57.9477 20.9089 57.4469 20.241 57.4469 19.2298V15.7763Z" fill="#2B2B2B"/>
<path d="M21.5671 28.7142C21.5671 29.3248 21.8222 29.6777 22.3514 29.6777C22.8902 29.6777 23.1359 29.3248 23.1359 28.7142V25.1843C23.1359 24.5833 22.8902 24.2208 22.3514 24.2208C21.8222 24.2208 21.5671 24.5833 21.5671 25.1843V28.7142ZM20.8396 25.2226C20.8396 24.2018 21.3404 23.5435 22.3514 23.5435C23.3721 23.5435 23.873 24.2018 23.873 25.2226V28.6761C23.873 29.6873 23.3721 30.3552 22.3514 30.3552C21.3404 30.3552 20.8396 29.6873 20.8396 28.6761V25.2226Z" fill="#2B2B2B"/>
<path d="M26.216 27.4112L25.1105 30.2922H24.4111L25.7435 26.8483L24.496 23.6143H25.2615L26.2821 26.2854L27.3123 23.6143H28.0021L26.7642 26.8483L28.0871 30.2922H27.3123L26.216 27.4112Z" fill="#2B2B2B"/>
<path d="M29.3538 28.7142C29.3538 29.3248 29.6089 29.6777 30.1381 29.6777C30.6768 29.6777 30.9225 29.3248 30.9225 28.7142V25.1843C30.9225 24.5833 30.6768 24.2208 30.1381 24.2208C29.6089 24.2208 29.3538 24.5833 29.3538 25.1843V28.7142ZM28.6262 25.2226C28.6262 24.2018 29.1271 23.5435 30.1381 23.5435C31.1587 23.5435 31.6596 24.2018 31.6596 25.2226V28.6761C31.6596 29.6873 31.1587 30.3552 30.1381 30.3552C29.1271 30.3552 28.6262 29.6873 28.6262 28.6761V25.2226Z" fill="#2B2B2B"/>
<path d="M33.7477 26.9914C34.2959 26.9914 34.5605 26.7338 34.5605 26.0946V25.2073C34.5605 24.5968 34.343 24.2915 33.8044 24.2915H33.0957V26.9914H33.7477ZM33.8044 23.6141C34.844 23.6141 35.288 24.2343 35.288 25.2455V26.0469C35.288 27.1058 34.7967 27.6592 33.7477 27.6592H33.0957V30.2922H32.3585V23.6141H33.8044Z" fill="#2B2B2B"/>
<path d="M36.535 28.7142C36.535 29.3248 36.7901 29.6777 37.3193 29.6777C37.8581 29.6777 38.1038 29.3248 38.1038 28.7142V25.1843C38.1038 24.5833 37.8581 24.2208 37.3193 24.2208C36.7901 24.2208 36.535 24.5833 36.535 25.1843V28.7142ZM35.8075 25.2226C35.8075 24.2018 36.3083 23.5435 37.3193 23.5435C38.34 23.5435 38.8409 24.2018 38.8409 25.2226V28.6761C38.8409 29.6873 38.34 30.3552 37.3193 30.3552C36.3083 30.3552 35.8075 29.6873 35.8075 28.6761V25.2226Z" fill="#2B2B2B"/>
<path d="M40.2774 27.2871V30.2922H39.5402V23.6141H40.2774V26.6194H41.9029V23.6141H42.6398V30.2922H41.9029V27.2871H40.2774Z" fill="#2B2B2B"/>
<path d="M45.1338 27.2108L44.1604 30.2922H43.3948V23.6141H44.047V28.5941L44.633 26.7529L45.6912 23.6141H46.5134V30.2922H45.852V24.9784L45.1338 27.2108Z" fill="#2B2B2B"/>
<path d="M23.8347 34.6716V34.8433C23.8347 35.5302 23.5607 36.0262 23.022 36.2266C23.5796 36.4174 23.8347 36.9326 23.8347 37.6003V38.125C23.8347 39.1363 23.3622 39.8042 22.3415 39.8042C21.3304 39.8042 20.8579 39.1363 20.8579 38.125V37.4763H21.5479V38.1632C21.5479 38.7642 21.7936 39.1267 22.3227 39.1267C22.8614 39.1267 23.0976 38.7738 23.0976 38.1059V37.5813C23.0976 36.9326 22.8046 36.5891 22.247 36.5891H21.9352V35.9212H22.2848C22.7762 35.9212 23.0976 35.5875 23.0976 35.0054V34.7C23.0976 34.0134 22.8614 33.67 22.3227 33.67C21.7936 33.67 21.5479 34.0325 21.5479 34.6333V35.0818H20.8674V34.6621C20.8674 33.6412 21.3304 32.9925 22.3415 32.9925C23.3622 32.9925 23.8347 33.6604 23.8347 34.6716Z" fill="#2B2B2B"/>
<path d="M25.838 38.099C25.8098 38.5761 25.7435 38.8622 25.5356 39.0817H27.2839V33.7392H26.0553L25.838 38.099ZM27.8131 40.6558V39.74H25.1104V40.6558H24.4016V39.0817H24.827C25.0537 38.824 25.1009 38.5188 25.1198 38.1084L25.375 33.0617H28.0304V39.0817H28.5313V40.6558H27.8131Z" fill="#2B2B2B"/>
<path d="M29.8445 38.1632C29.8445 38.7738 30.0996 39.1267 30.6288 39.1267C31.1675 39.1267 31.4132 38.7738 31.4132 38.1632V34.6333C31.4132 34.0325 31.1675 33.67 30.6288 33.67C30.0996 33.67 29.8445 34.0325 29.8445 34.6333V38.1632ZM29.1169 34.6716C29.1169 33.6508 29.6178 32.9925 30.6288 32.9925C31.6495 32.9925 32.1503 33.6508 32.1503 34.6716V38.125C32.1503 39.1363 31.6495 39.8042 30.6288 39.8042C29.6178 39.8042 29.1169 39.1363 29.1169 38.125V34.6716Z" fill="#2B2B2B"/>
<path d="M34.2397 36.4362C34.7879 36.4362 35.0525 36.1787 35.0525 35.5394V34.6521C35.0525 34.0417 34.835 33.7363 34.2965 33.7363H33.5878V36.4362H34.2397ZM34.2965 33.059C35.336 33.059 35.7801 33.6792 35.7801 34.6904V35.4917C35.7801 36.5506 35.2888 37.1041 34.2397 37.1041H33.5878V39.7371H32.8506V33.059H34.2965Z" fill="#2B2B2B"/>
<path d="M37.0258 38.1632C37.0258 38.7738 37.2809 39.1267 37.8101 39.1267C38.3488 39.1267 38.5945 38.7738 38.5945 38.1632V34.6333C38.5945 34.0325 38.3488 33.67 37.8101 33.67C37.2809 33.67 37.0258 34.0325 37.0258 34.6333V38.1632ZM36.2982 34.6716C36.2982 33.6508 36.799 32.9925 37.8101 32.9925C38.8307 32.9925 39.3316 33.6508 39.3316 34.6716V38.125C39.3316 39.1363 38.8307 39.8042 37.8101 39.8042C36.799 39.8042 36.2982 39.1363 36.2982 38.125V34.6716Z" fill="#2B2B2B"/>
<path d="M41.5531 39.0597C42.0917 39.0597 42.3374 38.7736 42.3374 38.1535V37.562C42.3374 36.8179 42.0446 36.5697 41.4114 36.5697H40.7688V39.0597H41.5531ZM41.3358 35.8925C41.9216 35.8925 42.2241 35.7016 42.2241 35.0053V34.614C42.2241 34.0226 42.0256 33.7363 41.4964 33.7363H40.7688V35.8925H41.3358ZM41.5154 33.059C42.5453 33.059 42.9518 33.5551 42.9518 34.5378V34.8526C42.9518 35.5585 42.7533 35.9973 42.1768 36.1787C42.8195 36.3598 43.0651 36.875 43.0651 37.6095V38.1726C43.0651 39.1742 42.5832 39.7371 41.5531 39.7371H40.0316V33.059H41.5154Z" fill="#2B2B2B"/>
<path d="M44.1229 34.828H43.8205L44.0568 33.9885H43.7827V33.0631H44.4914V33.9122L44.1229 34.828Z" fill="#2B2B2B"/>
<path d="M46.7596 33.7363C46.2115 33.7363 45.9942 34.0511 45.9942 34.6521V35.2913C45.9942 36.0164 46.3438 36.2072 46.9202 36.2072H47.4778V33.7363H46.7596ZM46.958 36.8845C46.3438 36.8845 45.9942 37.1231 45.9942 37.8768V38.9262C45.9942 39.3745 45.9565 39.5463 45.8713 39.7371H45.1248C45.2381 39.508 45.257 39.2315 45.257 38.9357V37.8958C45.257 37.1804 45.4839 36.6843 46.0792 36.5029C45.5217 36.3217 45.2665 35.8637 45.2665 35.1292V34.5854C45.2665 33.5932 45.7012 33.059 46.7408 33.059H48.215V39.7371H47.4778V36.8845H46.958Z" fill="#2B2B2B"/>
<path d="M22.8803 47.7174C22.6536 48.7192 22.3133 49.2534 21.1132 49.1961V48.5284C21.6801 48.5571 21.9352 48.3757 22.0583 47.8701L22.2095 47.4313L20.688 42.5084H21.4249L22.096 44.8268L22.5497 46.5059L22.937 44.8268L23.5324 42.5084H24.298L22.8803 47.7174Z" fill="#2B2B2B"/>
<path d="M25.9618 46.2832L25.5745 46.9415V49.1833H24.8373V42.5053H25.5745V45.7299L27.3321 42.5053H28.0786L26.406 45.5488L28.1354 49.1833H27.3795L25.9618 46.2832Z" fill="#2B2B2B"/>
<path d="M30.0905 45.8825C30.6388 45.8825 30.9034 45.6249 30.9034 44.9857V44.0984C30.9034 43.488 30.6859 43.1826 30.1473 43.1826H29.4386V45.8825H30.0905ZM30.1473 42.5053C31.1869 42.5053 31.6309 43.1254 31.6309 44.1366V44.938C31.6309 45.9969 31.1396 46.5504 30.0905 46.5504H29.4386V49.1833H28.7014V42.5053H30.1473Z" fill="#2B2B2B"/>
<path d="M33.0476 47.199H34.5219L33.7753 43.3449L33.0476 47.199ZM32.9531 47.8383L32.698 49.1833H32.0176L33.2838 42.5053H34.3518L35.618 49.1833H34.881L34.6257 47.8383H32.9531Z" fill="#2B2B2B"/>
<path d="M36.9317 49.1851H36.1945V42.507H36.9317V49.1851Z" fill="#2B2B2B"/>
<path d="M38.4252 46.1781V49.1833H37.688V42.5051H38.4252V45.5104H40.0507V42.5051H40.7876V49.1833H40.0507V46.1781H38.4252Z" fill="#2B2B2B"/>
<path d="M43.2827 46.1019L42.3093 49.1833H41.5437V42.5051H42.1959V47.4852L42.7819 45.6438L43.8402 42.5051H44.6623V49.1833H44.0009V43.8695L43.2827 46.1019Z" fill="#2B2B2B"/>
<path fill-rule="evenodd" clip-rule="evenodd" d="M11.7468 21.2869H11.3965C11.2682 20.6915 10.7041 20.45 10.7041 20.45C10.7041 20.45 10.8922 18.8884 10.9862 18.0859C11.1571 17.2145 11.7468 16.4725 11.7468 16.4725V21.2869ZM11.7468 23.9011H10.3111C10.3111 23.9011 10.3111 23.3661 10.1743 22.9262C10.3111 22.9262 11.2128 22.7922 11.3965 21.9426H11.7468V23.9011ZM8.85809 23.8924C8.85809 23.8924 8.88345 23.1944 9.53779 23.0901C9.59319 23.2713 9.64028 23.491 9.64028 23.8924H8.85809ZM8.8667 25.8769V24.5396H9.53326C9.53326 24.5396 9.46081 25.3202 8.8667 25.8769ZM8.53341 22.9562C8.53341 22.9562 7.96073 22.5638 7.78987 22.4517C8.24722 21.7527 8.53341 20.683 8.53341 20.683C8.53341 20.683 8.8199 21.7527 9.27696 22.4517C9.10594 22.5638 8.53341 22.9562 8.53341 22.9562ZM7.42685 23.8924C7.42685 23.491 7.47364 23.2713 7.52934 23.0901C8.18338 23.1944 8.20858 23.8924 8.20858 23.8924H7.42685ZM8.20013 25.8769C7.60632 25.3202 7.53341 24.5396 7.53341 24.5396H8.20013V25.8769ZM6.75575 23.9011H5.31998V21.9426H5.67032C5.85432 22.7922 6.75575 22.9262 6.89251 22.9262C6.75575 23.3661 6.75575 23.9011 6.75575 23.9011ZM5.31998 16.4725C5.31998 16.4725 5.90971 17.2145 6.08058 18.0859C6.17462 18.8884 6.36254 20.45 6.36254 20.45C6.36254 20.45 5.79847 20.6915 5.67032 21.2869H5.31998V16.4725ZM10.3281 18.03C10.0973 20.0745 9.99485 20.9804 9.99485 20.9804C9.99485 20.9804 10.0462 20.9635 10.1487 20.9635C10.2511 20.9635 10.7941 21.1013 10.7941 21.5974C10.7941 22.0937 10.3497 22.2618 10.1446 22.2618C9.93945 22.2618 9.92239 22.2274 9.92239 22.2274C9.92239 22.2274 8.91802 20.821 8.91802 18.7072C8.91802 17.3571 9.00783 16.123 9.00783 15.4286C9.00783 15.3077 9.00134 14.652 8.53341 14.1286C8.06534 14.652 8.0593 15.3077 8.0593 15.4286C8.0593 16.123 8.14881 17.3566 8.14881 18.7072C8.14881 20.821 7.14473 22.2274 7.14473 22.2274C7.14473 22.2274 7.12768 22.2618 6.92254 22.2618C6.71741 22.2618 6.27304 22.0934 6.27304 21.5974C6.27304 21.1013 6.81553 20.9635 6.91817 20.9635C7.02066 20.9635 7.07198 20.9804 7.07198 20.9804C7.07198 20.9804 6.96934 20.0745 6.7387 18.0297C6.29009 15.8427 4.66187 15.079 4.66187 15.079V24.5396H6.83258C6.83258 24.5396 6.99092 25.8723 8.14881 26.7224C8.14881 26.7224 8.51636 27.0417 8.53341 27.1451C8.55047 27.0417 8.91802 26.7224 8.91802 26.7224C10.0762 25.8728 10.2341 24.5396 10.2341 24.5396H12.405V15.0793C12.405 15.0793 10.777 15.8427 10.3281 18.03Z" fill="#2B2B2B"/>
<path d="M37.2827 42.0707H36.7908V41.564H37.2827V42.0707Z" fill="#2B2B2B"/>
<path d="M36.3587 42.0707H35.8479V41.564H36.3587V42.0707Z" fill="#2B2B2B"/>
<path d="M16.9817 49.1952H16.2145V31.6336H16.9817V49.1952Z" fill="#FFCB04"/>
<path d="M16.9798 31.668H16.2157V14.203H16.9798V31.668Z" fill="#2E368E"/>
</g>
</g>
<defs>
<clipPath id="clip0_334_2561">
<rect width="60" height="40" fill="white" transform="translate(2.5 12)"/>
</clipPath>
</defs>
</svg>
