<svg width="99" height="24" viewBox="0 0 99 24" fill="none" xmlns="http://www.w3.org/2000/svg">
<rect width="98.1379" height="24" rx="12" fill="#F3F3F3"/>
<path fill-rule="evenodd" clip-rule="evenodd" d="M6.86206 5V14.5455H8.79293V11.4909H10.2351L12.5208 15.1454L9.46153 20H11.6557L13.6367 16.7273L15.6052 20H17.8621L14.8028 15.1182L17.7367 10.4545H15.5425L13.7526 13.4404L12.3036 11.1364C13.5574 10.6273 14.1843 9.64093 14.1843 8.17729C14.1843 7.25001 13.9336 6.51364 13.432 5.96819C12.8386 5.32273 11.986 5 10.8743 5H6.86206ZM10.7489 9.63638H8.79293V6.89546H10.7113C11.1877 6.89546 11.5597 7.01364 11.8272 7.25001C12.0946 7.47728 12.2284 7.81365 12.2284 8.2591C12.2284 8.67729 12.0988 9.01365 11.8397 9.2682C11.5806 9.51366 11.217 9.63638 10.7489 9.63638Z" fill="#6B6B6B"/>
<path d="M25.6975 12.0918H24.594V11.3154H25.4729C25.7301 11.3154 25.9384 11.2764 26.0979 11.1982C26.2574 11.1169 26.3746 11.0029 26.4495 10.8564C26.5243 10.71 26.5618 10.5374 26.5618 10.3389C26.5618 10.1761 26.5194 10.0264 26.4348 9.88965C26.3534 9.75293 26.2265 9.64388 26.054 9.5625C25.8814 9.47786 25.6617 9.43555 25.3948 9.43555C25.193 9.43555 25.009 9.47135 24.843 9.54297C24.677 9.61458 24.5452 9.71549 24.4475 9.8457C24.3499 9.97266 24.301 10.1273 24.301 10.3096H22.8411C22.8411 9.99707 22.9078 9.71712 23.0413 9.46973C23.178 9.21908 23.3635 9.00749 23.5979 8.83496C23.8355 8.65918 24.109 8.52572 24.4182 8.43457C24.7275 8.34342 25.053 8.29785 25.3948 8.29785C25.7952 8.29785 26.1565 8.3418 26.4788 8.42969C26.801 8.51432 27.0777 8.64128 27.3088 8.81055C27.54 8.97982 27.7174 9.18978 27.8411 9.44043C27.9648 9.69108 28.0266 9.98242 28.0266 10.3145C28.0266 10.5586 27.9713 10.7881 27.8606 11.0029C27.7499 11.2178 27.592 11.4066 27.387 11.5693C27.1819 11.7321 26.9361 11.8607 26.6497 11.9551C26.3632 12.0462 26.0458 12.0918 25.6975 12.0918ZM24.594 11.667H25.6975C26.0849 11.667 26.4283 11.7077 26.7278 11.7891C27.0305 11.8704 27.2861 11.9893 27.4944 12.1455C27.706 12.3018 27.8655 12.4954 27.9729 12.7266C28.0836 12.9544 28.1389 13.2165 28.1389 13.5127C28.1389 13.8447 28.0706 14.1393 27.9338 14.3965C27.8004 14.6536 27.6099 14.8717 27.3625 15.0508C27.1184 15.2298 26.8287 15.3649 26.4934 15.4561C26.1614 15.5472 25.7952 15.5928 25.3948 15.5928C25.0758 15.5928 24.7584 15.5537 24.4426 15.4756C24.1269 15.3942 23.8404 15.2705 23.5833 15.1045C23.3261 14.9385 23.121 14.7253 22.968 14.4648C22.815 14.2044 22.7385 13.8919 22.7385 13.5273H24.2083C24.2083 13.6999 24.2587 13.8577 24.3596 14.001C24.4605 14.141 24.6005 14.2533 24.7795 14.3379C24.9586 14.4193 25.1637 14.46 25.3948 14.46C25.665 14.46 25.8944 14.4176 26.0833 14.333C26.2753 14.2484 26.4202 14.1328 26.5178 13.9863C26.6187 13.8366 26.6692 13.6722 26.6692 13.4932C26.6692 13.3011 26.6431 13.1383 26.5911 13.0049C26.539 12.8714 26.4625 12.7624 26.3616 12.6777C26.2607 12.5898 26.1353 12.5264 25.9856 12.4873C25.8391 12.4482 25.6682 12.4287 25.4729 12.4287H24.594V11.667ZM32.1135 9.60645L30.1799 15.5H28.6223L31.2639 8.39062H32.2551L32.1135 9.60645ZM33.72 15.5L31.7815 9.60645L31.6252 8.39062H32.6262L35.2825 15.5H33.72ZM33.6321 12.8535V14.001H29.8772V12.8535H33.6321ZM41.2004 12.9658H39.3889V11.8232H41.2004C41.4804 11.8232 41.7083 11.7777 41.884 11.6865C42.0598 11.5921 42.1884 11.4619 42.2698 11.2959C42.3512 11.1299 42.3918 10.9427 42.3918 10.7344C42.3918 10.5228 42.3512 10.3258 42.2698 10.1436C42.1884 9.96126 42.0598 9.81478 41.884 9.7041C41.7083 9.59342 41.4804 9.53809 41.2004 9.53809H39.8967V15.5H38.4319V8.39062H41.2004C41.7571 8.39062 42.234 8.49154 42.6311 8.69336C43.0315 8.89193 43.3375 9.16699 43.5491 9.51855C43.7607 9.87012 43.8665 10.2721 43.8665 10.7246C43.8665 11.1836 43.7607 11.5807 43.5491 11.916C43.3375 12.2513 43.0315 12.5101 42.6311 12.6924C42.234 12.8747 41.7571 12.9658 41.2004 12.9658ZM49.6477 14.3574V15.5H45.8635V14.3574H49.6477ZM46.342 8.39062V15.5H44.8772V8.39062H46.342ZM49.1545 11.2861V12.3994H45.8635V11.2861H49.1545ZM49.6428 8.39062V9.53809H45.8635V8.39062H49.6428ZM57.1917 14.3623L57.0989 17.2139H55.7317V15.5H55.1506V14.3623H57.1917ZM50.429 15.5V8.39062H51.8889V14.3574H54.7502V8.39062H56.22V15.5H50.429ZM62.8606 14.3574V15.5H59.0764V14.3574H62.8606ZM59.5549 8.39062V15.5H58.0901V8.39062H59.5549ZM62.3674 11.2861V12.3994H59.0764V11.2861H62.3674ZM62.8557 8.39062V9.53809H59.0764V8.39062H62.8557ZM69.5061 8.39062V15.5H68.0413V9.53809H65.1848V15.5H63.72V8.39062H69.5061ZM73.9641 8.39062V15.5H72.5042V8.39062H73.9641ZM76.1516 8.39062V9.53809H70.3508V8.39062H76.1516ZM82.6897 11.7793V12.1162C82.6897 12.6566 82.6165 13.1416 82.47 13.5713C82.3235 14.001 82.1168 14.3672 81.8499 14.6699C81.5829 14.9694 81.2639 15.1989 80.8928 15.3584C80.525 15.5179 80.1165 15.5977 79.6672 15.5977C79.2213 15.5977 78.8127 15.5179 78.4417 15.3584C78.0738 15.1989 77.7548 14.9694 77.4846 14.6699C77.2144 14.3672 77.0045 14.001 76.8547 13.5713C76.7083 13.1416 76.635 12.6566 76.635 12.1162V11.7793C76.635 11.2357 76.7083 10.7507 76.8547 10.3242C77.0012 9.89453 77.2079 9.52832 77.4749 9.22559C77.745 8.92285 78.064 8.69173 78.4319 8.53223C78.803 8.37272 79.2115 8.29297 79.6575 8.29297C80.1067 8.29297 80.5152 8.37272 80.8831 8.53223C81.2542 8.69173 81.5732 8.92285 81.8401 9.22559C82.1103 9.52832 82.3186 9.89453 82.4651 10.3242C82.6148 10.7507 82.6897 11.2357 82.6897 11.7793ZM81.2102 12.1162V11.7695C81.2102 11.3919 81.176 11.0599 81.1077 10.7734C81.0393 10.487 80.9384 10.2461 80.8049 10.0508C80.6715 9.85547 80.5087 9.70898 80.3167 9.61133C80.1246 9.51042 79.9049 9.45996 79.6575 9.45996C79.4101 9.45996 79.1903 9.51042 78.9983 9.61133C78.8095 9.70898 78.6484 9.85547 78.5149 10.0508C78.3847 10.2461 78.2854 10.487 78.217 10.7734C78.1487 11.0599 78.1145 11.3919 78.1145 11.7695V12.1162C78.1145 12.4906 78.1487 12.8226 78.217 13.1123C78.2854 13.3988 78.3863 13.6413 78.5198 13.8398C78.6532 14.0352 78.816 14.1833 79.0081 14.2842C79.2001 14.3851 79.4198 14.4355 79.6672 14.4355C79.9146 14.4355 80.1344 14.3851 80.3264 14.2842C80.5185 14.1833 80.6796 14.0352 80.8098 13.8398C80.94 13.6413 81.0393 13.3988 81.1077 13.1123C81.176 12.8226 81.2102 12.4906 81.2102 12.1162ZM84.4133 8.39062H85.6536L87.4797 13.6104L89.3059 8.39062H90.5461L87.9778 15.5H86.9817L84.4133 8.39062ZM83.7444 8.39062H84.9797L85.2043 13.4785V15.5H83.7444V8.39062ZM89.9797 8.39062H91.22V15.5H89.7551V13.4785L89.9797 8.39062Z" fill="#757575"/>
</svg>
